<svg width="121" height="22" viewBox="0 0 121 22" fill="none" xmlns="http://www.w3.org/2000/svg">
<g clip-path="url(#clip0_2884_156)">
<path d="M34.9242 9.15862C33.6244 9.3186 32.8045 9.69853 32.2646 10.2384C31.8247 10.6783 31.6047 11.2183 31.6047 11.7582C31.6047 12.738 32.3046 13.4379 33.1845 13.4379C33.7244 13.4379 34.2643 13.2179 34.5442 12.898C34.6442 12.798 34.7642 12.578 34.7642 12.3581L34.9242 9.15862ZM37.1438 14.9576C36.064 14.9576 35.0842 14.2578 34.8042 13.1779C34.2643 14.1578 33.2245 14.9576 31.8847 14.9576C30.3649 14.9576 29.0652 13.7578 29.0652 12.2581C29.0652 10.1384 31.0648 8.61871 34.8642 8.57872V8.03881C34.9242 6.51906 34.0443 5.59922 32.5246 5.59922C31.4448 5.59922 30.3049 6.2991 29.5451 7.21895C29.4851 7.27894 29.1651 6.93899 29.1651 6.899C30.145 4.93933 31.9247 3.85951 33.7644 3.85951C35.884 3.85951 37.4038 5.37926 37.3438 7.91883L37.1838 12.1381C37.1838 13.1179 37.6237 13.5379 38.1036 13.5379C38.6436 13.5379 39.0235 13.0979 39.2435 12.518C39.2435 12.4581 39.5634 12.618 39.5634 12.678C39.5834 14.1378 38.5036 14.9576 37.1438 14.9576ZM50.6416 14.5777H47.762C47.702 14.5777 47.702 14.0378 47.762 14.0378C48.9618 13.8778 49.1218 13.7578 49.1218 11.4382V8.17879C49.1218 6.71903 48.262 5.6792 47.0022 5.6792C46.1423 5.6792 45.3224 6.11913 44.9425 6.65904C44.6626 6.97899 44.5026 7.57888 44.5026 8.33876V11.4182C44.5026 13.7578 44.7825 13.8578 45.9623 14.0178C45.9623 14.0178 46.0223 14.5577 45.9623 14.5577H40.4633C40.4033 14.5577 40.4033 14.0178 40.4033 14.0178C41.703 13.7978 41.863 13.7378 41.863 11.4182V7.45891C41.863 5.0793 41.5831 4.95932 40.1833 4.75936C40.0833 4.75936 40.1233 4.21945 40.1833 4.21945H44.3026V6.59905H44.3626C45.2824 4.85934 46.7022 3.83951 48.4219 3.83951C50.3816 3.83951 51.8813 5.35926 51.8813 7.85884V11.3782C51.8813 13.7178 52.1013 13.8178 53.4011 13.9778C53.5011 13.9778 53.4611 14.5177 53.4011 14.5177C52.6012 14.5777 51.4014 14.5777 50.6416 14.5777ZM59.3601 14.9576C56.1006 14.9576 54.001 12.4181 54.001 9.47857C54.001 6.33909 56.1206 3.83951 59.5801 3.83951C61.1998 3.83951 62.0197 4.37942 62.4996 4.37942C62.7195 4.37942 62.9395 4.21945 63.0395 3.93949C63.0395 3.8795 63.6994 3.8795 63.6994 3.93949V7.83884C63.6994 7.89883 63.0395 7.89883 63.0395 7.83884C62.1796 6.05914 60.9798 4.53939 59.5801 4.53939C57.8404 4.53939 56.8205 6.37909 56.8205 8.91867C56.8205 11.6182 58.2203 13.4179 60.18 13.4179C61.4797 13.4179 62.9395 12.498 63.5394 11.4582C63.5994 11.3582 64.0193 11.5582 64.0193 11.6782C63.3194 13.5379 61.4797 14.9576 59.3601 14.9576ZM72.5379 8.0788V7.31893C72.5379 5.63921 71.718 4.65937 70.6982 4.65937C69.3984 4.65937 68.4186 6.05914 68.1986 8.0788H72.5379ZM68.1986 9.3186C68.1986 11.6582 69.4984 13.4379 71.718 13.4379C73.0178 13.4379 74.3176 12.578 75.0175 11.4782C75.0175 11.4182 75.4574 11.5782 75.4574 11.6982C74.8575 13.5379 72.9178 14.9576 70.7382 14.9576C67.3188 14.9576 65.3191 12.4581 65.3191 9.47857C65.3191 6.49907 67.4388 3.83951 71.0182 3.83951C73.7177 3.83951 75.5174 5.61921 75.6774 8.05881V8.81868H68.2986C68.1986 8.93866 68.1986 9.21862 68.1986 9.3186ZM81.0965 14.9576C79.4168 14.9576 77.957 14.5177 77.4571 14.1978C77.3971 14.1378 77.2371 12.738 77.2371 11.3182C77.2371 11.2583 77.897 11.2183 77.897 11.3182C78.7569 13.2179 80.0167 14.2977 81.3564 14.2977C82.4962 14.2977 83.3161 13.6978 83.3161 12.778C83.3161 11.6982 82.0163 11.1983 80.7165 10.6184C79.1368 10.0185 77.3571 9.21861 77.3571 7.19895C77.3571 5.61921 78.7169 3.99948 81.2564 3.99948C82.3363 3.99948 83.0361 4.43941 83.5361 4.43941C83.756 4.43941 83.976 4.27944 84.136 3.99948C84.136 3.93949 84.7959 3.93949 84.7959 3.99948V7.57889C84.7959 7.63888 84.136 7.63888 84.136 7.57889C83.2761 5.95916 82.2363 4.81935 80.9965 4.81935C79.8567 4.81935 79.3168 5.57922 79.3168 6.17912C79.3168 7.25894 80.5566 7.69886 81.8563 8.23877C83.4361 8.89866 85.2758 9.69853 85.2758 11.7582C85.2758 13.4979 83.6361 14.9576 81.0965 14.9576ZM86.4556 5.35926C86.2956 5.35926 86.2356 4.91933 86.3956 4.81935C87.5354 3.79952 89.4351 2.05981 90.4549 0.979989C90.5149 0.919999 90.8948 0.979989 90.8948 1.07997V4.27944H94.5742C94.6742 4.27944 94.6742 5.29927 94.5742 5.29927H90.8948V11.3182C90.8948 12.678 91.7147 13.2779 92.5746 13.2779C93.2345 13.2779 93.9343 12.738 94.2543 12.0781C94.2543 12.0181 94.6942 12.2381 94.6942 12.2981C94.2542 13.7578 92.8545 14.8976 91.2748 14.8976C89.5951 14.8976 88.2353 13.8178 88.2353 11.6982V5.35926H86.4556ZM103.593 7.09897C103.273 7.09897 102.453 6.11913 101.853 6.11913C101.573 6.11913 101.253 6.2791 100.993 6.55906C100.553 6.99898 100.173 8.01881 100.173 8.89867V11.4982C100.173 13.8778 100.553 13.9378 101.793 14.0978C101.793 14.0978 101.853 14.6377 101.793 14.6377H96.054C95.994 14.6377 95.994 14.0978 96.054 14.0978C97.3538 13.8778 97.5137 13.8178 97.5137 11.4982V7.53889C97.5137 5.19928 97.2338 5.03931 95.834 4.83934C95.734 4.83934 95.774 4.29943 95.834 4.29943H100.013V6.99898H100.113C100.213 6.67904 100.433 6.2991 100.593 5.91916C101.353 4.67937 102.273 3.9195 103.253 3.9195C104.173 3.9195 104.933 4.61938 104.933 5.37925C104.993 6.23911 103.853 7.09897 103.593 7.09897ZM114.811 8.49873L111.272 17.5572C110.032 20.7567 108.892 21.3966 107.372 21.3966C106.512 21.3966 105.532 20.9566 105.532 20.6967C105.473 20.2568 106.072 18.697 106.392 18.697C106.492 18.697 107.792 19.2969 108.452 19.2969C109.372 19.2969 109.972 18.697 110.452 17.3972L111.112 15.6575C110.892 14.7977 108.292 9.09863 107.972 8.33876C107.312 6.81901 106.892 5.63921 106.452 5.19928C106.172 4.91933 105.912 4.81935 105.153 4.71936C105.093 4.71936 105.093 4.17945 105.153 4.17945C105.852 4.17945 107.312 4.23944 108.132 4.23944C108.952 4.23944 110.352 4.17945 111.052 4.17945C111.112 4.17945 111.112 4.71936 111.052 4.71936C109.432 4.93933 109.592 5.47923 110.452 7.63887L112.351 12.2381L113.871 8.27877C114.411 6.919 114.691 6.11913 114.691 5.61921C114.691 5.01931 114.311 4.79935 113.171 4.75936C113.111 4.75936 113.111 4.15946 113.171 4.15946C113.931 4.15946 114.911 4.21945 115.551 4.21945C116.031 4.21945 116.531 4.15946 117.451 4.15946C117.51 4.15946 117.55 4.75936 117.451 4.75936C116.851 4.81935 116.591 4.97932 116.251 5.29927C115.831 5.73919 115.511 6.61905 114.811 8.49873Z" fill="#9CA0AC"/>
<path d="M16.7672 3.5794C14.8675 1.51975 12.9678 1.83969 12.6479 1.89968C12.8079 1.95967 12.9678 5.53908 14.9875 7.41876C16.3473 8.65856 19.1068 8.23862 19.1068 8.23862C19.1068 8.23862 18.6269 5.57907 16.7672 3.5794ZM19.0468 10.5582C18.4469 10.5582 16.0073 10.7782 14.3876 12.7779C12.7079 14.8975 12.7679 16.5772 12.3879 16.9572C12.7079 17.0572 16.1273 17.3971 17.5871 15.1775C18.9868 13.1178 19.0468 10.8982 19.0468 10.5582ZM4.20924 9.09848C4.58918 9.15847 5.88896 10.8382 8.22857 11.0582C10.7682 11.3381 11.6481 10.0383 11.688 10.0383C11.688 9.87835 9.62834 7.65872 7.34872 7.65872C5.76898 7.69871 4.20924 9.09848 4.20924 9.09848ZM13.4678 10.2383C13.4078 10.2983 11.3081 13.1178 6.30889 12.3579C2.28956 11.698 0.829812 9.47841 0.569855 9.43842C0.889802 8.99849 3.92929 6.5589 7.4487 6.61889C10.9082 6.71888 13.4678 8.67855 13.4678 8.67855H15.6874C13.9077 8.13864 11.728 7.15881 10.7482 4.99917C9.8883 2.9995 10.0483 1.7997 9.66833 0.119978C9.66833 0.119978 13.6877 -0.199967 16.7672 1.7997C19.5867 3.63939 21.1465 8.51858 21.2065 8.67855H22.9462L22.5662 0L24.7259 0.0599875C24.3459 2.33961 24.8259 18.5969 24.7259 18.5969C24.5059 18.6569 22.6662 18.7569 22.5062 18.3169C22.5062 18.3169 22.9462 10.3583 22.9862 10.1983H21.3064C21.3064 10.2983 21.1465 14.7975 17.727 17.1971C14.3076 19.5767 9.38838 18.8768 9.38838 18.8768C9.98829 17.957 9.38838 16.9772 11.1281 14.3176C13.1278 11.2781 15.7874 10.1983 15.7274 10.1983C15.5874 10.2383 13.5277 10.2383 13.4678 10.2383Z" fill="#9CA0AC"/>
<path d="M119.57 5.17903C119.73 5.17903 119.83 5.11904 119.83 4.97907C119.83 4.85909 119.77 4.7791 119.57 4.7791H119.41V5.17903H119.57ZM119.25 4.63912H119.61C119.81 4.63912 120.01 4.71911 120.01 4.97907C120.01 5.11904 119.93 5.23902 119.81 5.27902L120.07 5.73894H119.87L119.67 5.33901H119.43V5.73894H119.27V4.63912H119.25ZM120.39 5.19903C120.39 4.69911 120.03 4.31918 119.59 4.31918C119.15 4.31918 118.79 4.69911 118.79 5.19903C118.79 5.69895 119.15 6.05888 119.59 6.05888C120.03 6.05888 120.39 5.69895 120.39 5.19903ZM118.65 5.19903C118.65 4.57913 119.09 4.1792 119.61 4.1792C120.13 4.1792 120.57 4.57913 120.57 5.19903C120.57 5.79893 120.15 6.21886 119.61 6.21886C119.09 6.19886 118.65 5.79893 118.65 5.19903Z" fill="#9CA0AC"/>
</g>
<defs>
<clipPath id="clip0_2884_156">
<rect width="120" height="22" fill="white" transform="translate(0.569855)"/>
</clipPath>
</defs>
</svg>
