<svg width="17" height="17" viewBox="0 0 17 17" fill="none" xmlns="http://www.w3.org/2000/svg">
<rect x="0.0966187" y="0.803711" width="16.1291" height="16.1291" rx="8.06453" fill="#0066FF"/>
<path d="M8.16443 4.64718L8.16443 5.19264C8.16443 5.66202 8.07654 5.73811 7.77348 5.90311L4.9498 7.3366L4.9498 7.40006L7.76066 8.80827C8.07654 8.97309 8.16443 9.03664 8.16443 9.51874L8.16443 10.1276C8.16443 10.5081 8.03808 10.635 7.7103 10.4575L3.46197 8.12307C3.21018 7.98361 3.12137 7.88207 3.12137 7.59042L3.12137 7.18441C3.12137 6.89259 3.21018 6.7784 3.46197 6.63895L7.7103 4.31726C8.03808 4.13971 8.16443 4.26653 8.16443 4.64718Z" fill="white"/>
<path d="M8.61325 6.65385L12.8488 8.97545C13.1134 9.11499 13.2022 9.21645 13.2022 9.50818L13.2022 9.91419C13.2022 10.2187 13.1134 10.3201 12.8488 10.4597L8.61325 12.7813C8.27265 12.9589 8.15912 12.8321 8.15912 12.4514L8.15912 11.906C8.15912 11.4366 8.24702 11.3604 8.55008 11.2082L11.3737 9.77464L11.3737 9.69855L8.56289 8.29034C8.24702 8.13816 8.15912 8.06197 8.15912 7.57987L8.15912 6.97095C8.15912 6.5903 8.27265 6.46357 8.61325 6.65385Z" fill="white"/>
</svg>
