<svg width="14" height="14" viewBox="0 0 14 14" fill="none" xmlns="http://www.w3.org/2000/svg">
<path d="M6.0279 1.45996L6.6721 0.80957C6.94487 0.53418 7.38594 0.53418 7.6558 0.80957L13.2969 6.50195C13.5696 6.77734 13.5696 7.22266 13.2969 7.49512L7.6558 13.1904C7.38304 13.4658 6.94196 13.4658 6.6721 13.1904L6.0279 12.54C5.75223 12.2617 5.75804 11.8076 6.03951 11.5352L9.53616 8.17188H1.19643C0.810491 8.17188 0.5 7.8584 0.5 7.46875V6.53125C0.5 6.1416 0.810491 5.82813 1.19643 5.82813H9.53616L6.03951 2.46484C5.75513 2.19238 5.74933 1.73828 6.0279 1.45996Z" fill="white"/>
</svg>
