<svg width="17" height="17" viewBox="0 0 17 17" fill="none" xmlns="http://www.w3.org/2000/svg">
<g clip-path="url(#clip0_3_299)">
<path d="M16.2812 12.4343H2.78125V2.93433C2.78125 2.65808 2.5575 2.43433 2.28125 2.43433H1.28125C1.005 2.43433 0.78125 2.65808 0.78125 2.93433V13.4343C0.78125 13.9865 1.22906 14.4343 1.78125 14.4343H16.2812C16.5575 14.4343 16.7812 14.2106 16.7812 13.9343V12.9343C16.7812 12.6581 16.5575 12.4343 16.2812 12.4343ZM15.2812 3.43433H11.5919C10.9237 3.43433 10.5891 4.24214 11.0616 4.71464L12.0741 5.72714L9.78125 8.02026L7.48844 5.72745C7.09781 5.33683 6.46469 5.33683 6.07438 5.72745L3.92781 7.87401C3.7325 8.06933 3.7325 8.38589 3.92781 8.5812L4.63469 9.28808C4.83 9.48339 5.14656 9.48339 5.34188 9.28808L6.78125 7.84839L9.07406 10.1412C9.46469 10.5318 10.0978 10.5318 10.4881 10.1412L13.4881 7.1412L14.5006 8.1537C14.9731 8.6262 15.7809 8.29151 15.7809 7.62339V3.93433C15.7812 3.65808 15.5575 3.43433 15.2812 3.43433Z" fill="#682EE6"/>
</g>
<defs>
<clipPath id="clip0_3_299">
<rect width="16" height="16" fill="white" transform="translate(0.78125 0.434326)"/>
</clipPath>
</defs>
</svg>
