<svg width="70" height="34" viewBox="0 0 70 34" fill="none" xmlns="http://www.w3.org/2000/svg">
<path d="M32.0146 5.44137L32.015 5.44212C32.0656 5.52922 35.1257 10.8177 38.3644 16.4159L37.9435 16.6594L38.3644 16.416C41.4465 21.7439 44.6333 27.2521 44.7091 27.383C44.7788 27.5017 44.9282 27.5905 45.0843 27.5905C45.3275 27.5905 45.5283 27.3911 45.5283 27.1442V6.85583C45.5283 5.32555 46.7692 4.07858 48.2994 4.07858C49.278 4.07858 50.192 4.59778 50.6837 5.44072C50.6839 5.44098 50.684 5.44124 50.6842 5.44151L50.2522 5.6933C50.3024 5.77866 53.2756 10.9216 56.4621 16.4332L56.597 16.6666C58.7009 20.3062 60.8539 24.03 62.0311 26.0663C62.5839 27.0224 62.9216 27.6065 62.938 27.635L32.0146 5.44137ZM32.0146 5.44137C31.5227 4.59811 30.6086 4.07858 29.6296 4.07858C28.1001 4.07858 26.8585 5.32546 26.8585 6.85583V26.7301C26.8585 26.8421 26.7995 27.0059 26.6679 27.1465C26.5408 27.2824 26.3847 27.3556 26.2316 27.3556H16.126C10.4376 27.3556 5.80695 22.7154 5.80695 17.0102C5.80695 11.305 10.4376 6.66484 16.126 6.66484H20.8143M32.0146 5.44137L20.8143 6.66484M20.8143 6.66484V9.65776V6.66484ZM53.2543 3.64483C53.4504 3.98092 58.5664 12.8076 60.2053 15.6352L53.2543 3.64483ZM53.2543 3.64483C52.2007 1.8394 50.2028 0.69873 48.0764 0.69873C44.7456 0.69873 42.0445 3.4076 42.0445 6.74625V15.5007L53.2543 3.64483ZM63.7451 27.5905C63.5892 27.5905 63.4399 27.5019 63.3701 27.3834L22.3118 23.8627C22.9485 23.8615 23.3857 23.3533 23.3837 22.7701H23.8837V22.7696V6.74625C23.8837 3.68249 26.3622 1.19873 29.4156 1.19873C31.367 1.19873 33.199 2.24733 34.1616 3.89684L34.1618 3.89712C34.2782 4.0963 36.1401 7.30813 37.9741 10.4723L40.4806 14.7966L41.3013 16.2127L41.5308 16.6086L41.5912 16.7129L41.6066 16.7396L41.6106 16.7463L41.6115 16.748L41.6118 16.7485C41.6118 16.7485 41.6119 16.7486 42.0445 16.4979L41.6119 16.7486L42.5445 18.3578V16.4979V6.74625C42.5445 3.68249 45.023 1.19873 48.0764 1.19873C50.0277 1.19873 51.8598 2.24733 52.8224 3.89684L52.8224 3.89689C52.9388 4.09623 54.8008 7.30827 56.6348 10.4723L59.1413 14.7966L59.9621 16.2127L60.1916 16.6087L60.252 16.7129L60.2674 16.7396L60.2713 16.7463L60.2723 16.748L60.2726 16.7485C60.2726 16.7486 60.2727 16.7486 60.7053 16.4979L60.2727 16.7486L61.2053 18.3577V16.4979V1.34066H64.1885V27.1442C64.1885 27.3915 63.9879 27.5905 63.7451 27.5905Z" fill="#9CA0AC" stroke="#9CA0AC"/>
<path d="M20.8142 1.34033H16.1309C7.49946 1.34033 0.5 8.35455 0.5 17.0099C0.5 25.6656 7.49948 32.68 16.1309 32.68H26.3333H26.3336C28.1691 32.681 29.6177 32.144 30.6058 31.1678C31.5924 30.1929 32.1809 28.7196 32.1784 26.7257V26.7251V17.5021V15.6423L33.111 17.2514L32.6784 17.5021C33.111 17.2514 33.111 17.2515 33.1111 17.2515L33.1113 17.252L33.1123 17.2537L33.1163 17.2605L33.1319 17.2874L33.1927 17.3923L33.4237 17.7909L34.2496 19.2158L36.7682 23.561C38.6088 26.7364 40.4707 29.9481 40.5613 30.103L40.5615 30.1034C41.5241 31.7527 43.3562 32.8013 45.3075 32.8013C48.3612 32.8013 50.8392 30.3176 50.8392 27.254V17.5021V15.6423L51.7718 17.2514L51.3392 17.5021C51.7718 17.2514 51.7718 17.2515 51.7719 17.2516L51.7721 17.252L51.7731 17.2537L51.777 17.2604L51.7925 17.2871L51.8529 17.3914L52.0824 17.7873L52.9031 19.2034L55.4096 23.5279C57.2435 26.6918 59.1055 29.9038 59.222 30.1034C60.1849 31.7527 62.017 32.8013 63.9683 32.8013C67.0217 32.8013 69.5 30.3175 69.5 27.254V1.34033H66.5165V27.1442C66.5165 28.6748 65.2755 29.9214 63.7453 29.9214C62.7664 29.9214 61.8523 29.4019 61.3604 28.559L61.3599 28.5582C61.3092 28.471 58.2512 23.1821 55.0152 17.584C53.6979 15.3058 52.3618 12.9945 51.2577 11.0847L50.7043 10.1274L49.2517 7.61479L48.8343 6.89315L48.7196 6.69495L48.688 6.64031L48.679 6.62482L48.6764 6.62036L48.6756 6.619L48.6744 6.61708C48.6056 6.49893 48.4559 6.40952 48.2994 6.40952C48.0565 6.40952 47.856 6.60864 47.856 6.85551V27.1442C47.856 28.6749 46.6143 29.9214 45.0845 29.9214C44.1054 29.9214 43.1921 29.4018 42.6998 28.5593L42.6991 28.5582C42.6485 28.4711 39.5885 23.1826 36.3498 17.584M20.8142 1.34033L36.3498 17.584M20.8142 1.34033V4.33355H16.1262C9.15125 4.33355 3.47916 10.0209 3.47916 17.0099C3.47916 23.9995 9.15125 29.6865 16.1262 29.6865H26.2319C27.8158 29.6865 29.1862 28.3143 29.1862 26.73V6.85551C29.1862 6.60864 29.3867 6.40952 29.6296 6.40952C29.7854 6.40952 29.935 6.49835 30.0048 6.61733M20.8142 1.34033L30.0048 6.61733M36.3498 17.584C35.2288 15.6465 34.0942 13.6853 33.1004 11.9676C31.3532 8.94774 30.0415 6.68044 30.0048 6.61733M36.3498 17.584L30.0048 6.61733" fill="#9CA0AC" stroke="#9CA0AC"/>
<path d="M3.97928 17.0104C3.97928 23.7247 9.42835 29.187 16.1261 29.187H26.2317C27.5391 29.187 28.6863 28.0391 28.6863 26.7302V6.856C28.6863 6.33433 29.1093 5.91 29.6297 5.91C29.9582 5.91 30.2748 6.08865 30.4367 6.36551C30.487 6.45265 33.6876 11.9846 36.7827 17.3342C40.0217 22.9329 43.081 28.2206 43.1316 28.3075C43.5331 28.995 44.2811 29.4216 45.0844 29.4216C46.3371 29.4216 47.3561 28.4002 47.3561 27.1444V6.856C47.3561 6.33433 47.7791 5.91 48.2995 5.91C48.628 5.91 48.9449 6.08865 49.1066 6.36551C49.1586 6.45469 52.3557 11.9855 55.4481 17.3339C58.6845 22.9326 61.7418 28.2206 61.7924 28.3075C62.1936 28.995 62.9419 29.4216 63.7452 29.4216C64.9979 29.4216 66.0166 28.4002 66.0166 27.1444V0.84082H64.6886V27.1444C64.6886 27.6663 64.2656 28.0907 63.7452 28.0907C63.4166 28.0907 63.1 27.912 62.9381 27.6351C62.8864 27.546 59.689 22.0154 56.5971 16.6668C53.3602 11.0678 50.3032 5.78003 50.2523 5.69347C49.8511 5.00569 49.1028 4.57874 48.2995 4.57874C47.0468 4.57874 46.0281 5.6005 46.0281 6.856V27.1444C46.0281 27.6663 45.6048 28.0907 45.0844 28.0907C44.7558 28.0907 44.4392 27.912 44.2773 27.6351C44.227 27.5483 41.0264 22.0163 37.9314 16.6665C34.6924 11.0678 31.6331 5.78003 31.5825 5.69347C31.1813 5.00569 30.433 4.57874 29.6297 4.57874C28.3772 4.57874 27.3585 5.6005 27.3585 6.856V26.7302C27.3585 27.251 26.8663 27.8558 26.2317 27.8558H16.1261C10.1604 27.8558 5.30702 22.9906 5.30702 17.0104C5.30702 11.0302 10.1604 6.16501 16.1261 6.16501H21.3141V4.83375H16.1261C9.42835 4.83375 3.97928 10.2961 3.97928 17.0104Z" fill="white"/>
</svg>
