<svg width="19" height="19" viewBox="0 0 19 19" fill="none" xmlns="http://www.w3.org/2000/svg">
<g clip-path="url(#clip0_3_5)">
<path d="M9.03436 0.840523L1.9809 3.5315C1.34676 3.773 0.92627 4.39399 0.92627 5.08399V12.8499C0.92627 13.4778 1.27555 14.0505 1.82491 14.3299L8.87837 17.9179C9.33616 18.1525 9.87535 18.1525 10.3331 17.9179L17.3866 14.3299C17.9393 14.0505 18.2852 13.4743 18.2852 12.8499V5.08399C18.2852 4.39399 17.8647 3.77645 17.2306 3.53495L10.1772 0.843973C9.81091 0.699074 9.40399 0.699074 9.03436 0.840523ZM9.60745 2.98296L16.1183 5.46694V5.50488L9.60745 8.19586L3.09656 5.50488V5.46694L9.60745 2.98296ZM10.6926 15.2649V10.1278L16.1183 7.88537V12.5049L10.6926 15.2649Z" fill="#0066FF"/>
</g>
<defs>
<clipPath id="clip0_3_5">
<rect width="17.359" height="17.359" fill="white" transform="translate(0.92627 0.734863)"/>
</clipPath>
</defs>
</svg>
