<svg width="17" height="16" viewBox="0 0 17 16" fill="none" xmlns="http://www.w3.org/2000/svg">
<path d="M14.7219 9.8182C14.7219 9.8182 12.9441 12.4503 12.9441 13.4546C12.9441 14.4588 13.7402 15.2727 14.7219 15.2727C15.7036 15.2727 16.4997 14.4588 16.4997 13.4546C16.4997 12.4503 14.7219 9.8182 14.7219 9.8182ZM14.4616 6.89377L8.69243 0.993488C8.51882 0.815931 8.29131 0.727295 8.06381 0.727295C7.83631 0.727295 7.60881 0.815931 7.43548 0.993488L5.16936 3.3111L2.77546 0.862522C2.60185 0.684965 2.32046 0.684965 2.14712 0.862522L1.51878 1.50514C1.34545 1.68269 1.34545 1.97048 1.51878 2.14775L3.91296 4.59604L1.28073 7.28809C0.239335 8.35286 0.239335 10.0796 1.28073 11.1446L4.53602 14.4739C5.05658 15.0063 5.73908 15.2727 6.42131 15.2727C7.10381 15.2727 7.78603 15.0066 8.30659 14.4739L14.4613 8.17928C14.8086 7.82417 14.8086 7.24889 14.4616 6.89377ZM11.2333 8.90997H2.33101C2.36879 8.80087 2.43018 8.68326 2.5374 8.57389L2.90268 8.20031L5.16963 5.88184L6.79742 7.54661C7.14437 7.90144 7.70715 7.90144 8.05409 7.54661C8.40104 7.19178 8.40104 6.61622 8.05409 6.26139L6.42631 4.59661L8.06381 2.9219L12.5761 7.53667L11.2333 8.90997Z" fill="#0066FF"/>
</svg>
