<svg width="553" height="461" viewBox="0 0 553 461" fill="none" xmlns="http://www.w3.org/2000/svg">
<g opacity="0.6">
<circle cx="115.92" cy="231.676" r="105.5" fill="#EAF4FC" stroke="#EAF4FC" stroke-width="20"/>
<circle cx="115.92" cy="231.676" r="61" fill="#E9F3FF" stroke="#D5E8FF" stroke-width="25"/>
</g>
<rect x="83.7484" y="199.116" width="65.0961" height="65.0961" rx="6.50961" fill="#0066FF"/>
<path d="M115.744 217.838V219.655C115.744 221.219 115.451 221.473 114.441 222.022L105.032 226.799V227.01L114.398 231.703C115.451 232.252 115.744 232.464 115.744 234.07V236.099C115.744 237.367 115.323 237.79 114.231 237.198L100.075 229.42C99.2358 228.955 98.9399 228.617 98.9399 227.645V226.292C98.9399 225.32 99.2358 224.939 100.075 224.474L114.231 216.738C115.323 216.147 115.744 216.569 115.744 217.838Z" fill="white"/>
<path d="M117.238 224.522L131.351 232.258C132.233 232.723 132.529 233.061 132.529 234.033V235.386C132.529 236.4 132.233 236.738 131.351 237.203L117.238 244.939C116.103 245.531 115.725 245.108 115.725 243.84V242.022C115.725 240.458 116.018 240.205 117.027 239.697L126.436 234.921V234.667L117.07 229.975C116.018 229.468 115.725 229.214 115.725 227.607V225.578C115.725 224.31 116.103 223.888 117.238 224.522Z" fill="white"/>
<g filter="url(#filter0_d_3_21)">
<rect x="389.7" y="11.4226" width="151.891" height="54.2468" rx="5.42468" fill="white"/>
<path d="M476.06 34.993H470.935V35.5371C472.538 35.5371 472.795 35.8809 472.795 37.9154V41.583C472.795 43.6173 472.538 43.9898 470.935 43.9898C469.704 43.818 468.873 43.1588 467.728 41.8982L466.411 40.4657C468.186 40.1501 469.131 39.033 469.131 37.7721C469.131 36.1965 467.785 34.993 465.266 34.993H460.227V35.5371C461.83 35.5371 462.088 35.8809 462.088 37.9154V41.583C462.088 43.6173 461.83 43.9898 460.227 43.9898V44.5341H465.924V43.9898C464.321 43.9898 464.063 43.6173 464.063 41.583V40.5518H464.55L467.728 44.5341H476.06C480.154 44.5341 481.929 42.3568 481.929 39.7491C481.929 37.1419 480.154 34.993 476.06 34.993ZM464.064 39.663V35.8527H465.237C466.526 35.8527 467.098 36.7409 467.098 37.7723C467.098 38.7753 466.526 39.6632 465.237 39.6632H464.064V39.663ZM476.146 43.646H475.945C474.915 43.646 474.772 43.3883 474.772 42.0702V35.8527C474.772 35.8527 476.031 35.8527 476.146 35.8527C479.123 35.8527 479.667 38.03 479.667 39.7206C479.667 41.4682 479.123 43.646 476.146 43.646Z" fill="#00749A"/>
<path d="M444.282 40.7235L446.257 34.8781C446.83 33.1877 446.572 32.7008 444.74 32.7008V32.1276H450.122V32.7008C448.319 32.7008 447.889 33.1306 447.173 35.2222L443.909 45.0212H443.537L440.617 36.0529L437.639 45.0212H437.267L434.089 35.2222C433.402 33.1306 432.944 32.7008 431.283 32.7008V32.1276H437.639V32.7008C435.95 32.7008 435.492 33.1018 436.093 34.8781L438.011 40.7235L440.903 32.1276H441.447L444.282 40.7235Z" fill="#00749A"/>
<path d="M454.014 44.9065C450.865 44.9065 448.288 42.5859 448.288 39.7489C448.288 36.9412 450.865 34.6201 454.014 34.6201C457.164 34.6201 459.74 36.9412 459.74 39.7489C459.74 42.5859 457.164 44.9065 454.014 44.9065ZM454.014 35.509C451.381 35.509 450.464 37.8868 450.464 39.7492C450.464 41.6406 451.381 43.9899 454.014 43.9899C456.677 43.9899 457.593 41.6406 457.593 39.7492C457.593 37.8868 456.677 35.509 454.014 35.509Z" fill="#00749A"/>
<path d="M488.478 43.8702V44.4432H481.921V43.8702C483.84 43.8702 484.183 43.3833 484.183 40.5176V35.9336C484.183 33.068 483.84 32.6098 481.921 32.6098V32.0365H487.848C490.797 32.0365 492.429 33.5551 492.429 35.5898C492.429 37.5668 490.797 39.1139 487.848 39.1139H486.216V40.5174C486.216 43.3833 486.559 43.8702 488.478 43.8702ZM487.848 33.068H486.216V38.0537H487.848C489.451 38.0537 490.196 36.9364 490.196 35.5898C490.196 34.2145 489.451 33.068 487.848 33.068Z" fill="#464342"/>
<path d="M512.62 41.841L512.477 42.3566C512.219 43.3021 511.904 43.646 509.871 43.646H509.47C507.982 43.646 507.724 43.3021 507.724 41.2679V39.9501C509.957 39.9501 510.129 40.1503 510.129 41.6405H510.673V37.3711H510.129C510.129 38.861 509.957 39.0615 507.724 39.0615V35.8527H509.299C511.332 35.8527 511.646 36.1965 511.904 37.1421L512.047 37.6862H512.505L512.305 34.993H503.888V35.5371C505.491 35.5371 505.749 35.8809 505.749 37.9154V41.583C505.749 43.444 505.53 43.9128 504.266 43.9797C503.064 43.796 502.239 43.1403 501.111 41.8982L499.794 40.4657C501.569 40.1501 502.514 39.033 502.514 37.7721C502.514 36.1965 501.168 34.993 498.649 34.993H493.61V35.5371C495.213 35.5371 495.471 35.8809 495.471 37.9154V41.583C495.471 43.6173 495.213 43.9898 493.61 43.9898V44.5341H499.307V43.9898C497.704 43.9898 497.446 43.6173 497.446 41.583V40.5518H497.933L501.111 44.5341H512.878L513.05 41.8412H512.62V41.841ZM497.446 39.663V35.8527H498.62C499.908 35.8527 500.481 36.7409 500.481 37.7723C500.481 38.7753 499.908 39.6632 498.62 39.6632H497.446V39.663Z" fill="#464342"/>
<path d="M518.434 44.9062C517.289 44.9062 516.286 44.3047 515.857 43.932C515.714 44.0755 515.456 44.5052 515.399 44.9062H514.855V40.9527H515.428C515.657 42.8436 516.974 43.9609 518.663 43.9609C519.579 43.9609 520.324 43.4453 520.324 42.5859C520.324 41.8411 519.665 41.2678 518.491 40.7235L516.859 39.9499C515.714 39.4051 514.855 38.4596 514.855 37.1991C514.855 35.8238 516.144 34.6493 517.919 34.6493C518.864 34.6493 519.665 34.9931 520.152 35.3941C520.295 35.2795 520.438 34.9642 520.524 34.6201H521.068V38.0014H520.467C520.266 36.6546 519.522 35.5372 518.005 35.5372C517.203 35.5372 516.458 35.9956 516.458 36.7122C516.458 37.4571 517.06 37.8581 518.434 38.4885L520.009 39.262C521.383 39.921 521.927 40.9816 521.927 41.8411C521.927 43.6458 520.352 44.9062 518.434 44.9062Z" fill="#464342"/>
<path d="M527.251 44.9062C526.106 44.9062 525.104 44.3047 524.675 43.932C524.531 44.0755 524.274 44.5052 524.217 44.9062H523.673V40.9527H524.245C524.474 42.8436 525.791 43.9609 527.48 43.9609C528.397 43.9609 529.141 43.4453 529.141 42.5859C529.141 41.8411 528.483 41.2678 527.309 40.7235L525.677 39.9499C524.531 39.4051 523.672 38.4596 523.672 37.1991C523.672 35.8238 524.961 34.6493 526.736 34.6493C527.681 34.6493 528.482 34.9931 528.969 35.3941C529.112 35.2795 529.255 34.9642 529.341 34.6201H529.885V38.0014H529.284C529.083 36.6546 528.339 35.5372 526.822 35.5372C526.02 35.5372 525.276 35.9956 525.276 36.7122C525.276 37.4571 525.877 37.8581 527.251 38.4885L528.826 39.262C530.2 39.921 530.744 40.9816 530.744 41.8411C530.744 43.6458 529.169 44.9062 527.251 44.9062Z" fill="#464342"/>
<path d="M402.651 38.1377C402.651 43.1568 405.566 47.4942 409.792 49.5497L403.748 32.9773C403.045 34.5543 402.651 36.2994 402.651 38.1377Z" fill="#464342"/>
<path d="M423.874 37.4977C423.874 35.9306 423.312 34.8454 422.829 34.0007C422.187 32.9562 421.585 32.0717 421.585 31.0272C421.585 29.8616 422.468 28.7765 423.713 28.7765C423.769 28.7765 423.822 28.7835 423.877 28.7867C421.623 26.7199 418.619 25.458 415.321 25.458C410.894 25.458 407 27.7308 404.734 31.1734C405.031 31.1823 405.312 31.1886 405.55 31.1886C406.875 31.1886 408.926 31.0276 408.926 31.0276C409.609 30.9874 409.69 31.9913 409.008 32.0721C409.008 32.0721 408.321 32.153 407.557 32.193L412.171 45.9277L414.944 37.6053L412.97 32.1925C412.288 32.1525 411.642 32.0717 411.642 32.0717C410.959 32.0316 411.039 30.9869 411.722 31.0272C411.722 31.0272 413.814 31.1881 415.059 31.1881C416.384 31.1881 418.436 31.0272 418.436 31.0272C419.119 30.9869 419.2 31.9908 418.517 32.0717C418.517 32.0717 417.829 32.1525 417.067 32.1925L421.646 45.8232L422.91 41.5968C423.457 39.843 423.874 38.5832 423.874 37.4977Z" fill="#464342"/>
<path d="M415.543 39.2469L411.742 50.302C412.877 50.636 414.077 50.8186 415.321 50.8186C416.797 50.8186 418.212 50.5633 419.529 50.0998C419.495 50.0455 419.464 49.9879 419.438 49.9252L415.543 39.2469Z" fill="#464342"/>
<path d="M426.439 32.054C426.493 32.4579 426.524 32.8914 426.524 33.3578C426.524 34.6445 426.284 36.091 425.561 37.8996L421.69 49.098C425.457 46.8997 427.991 42.8156 427.991 38.1378C427.991 35.9332 427.429 33.8602 426.439 32.054Z" fill="#464342"/>
<path d="M415.321 23.3571C407.177 23.3571 400.551 29.9876 400.551 38.1377C400.551 46.2888 407.177 52.9191 415.321 52.9191C423.464 52.9191 430.091 46.2888 430.091 38.1377C430.091 29.9876 423.464 23.3571 415.321 23.3571ZM415.321 52.2416C407.55 52.2416 401.228 45.9145 401.228 38.1377C401.228 30.3613 407.55 24.0348 415.321 24.0348C423.091 24.0348 429.413 30.3613 429.413 38.1377C429.413 45.9145 423.091 52.2416 415.321 52.2416Z" fill="#464342"/>
</g>
<g filter="url(#filter1_d_3_21)">
<rect x="389.7" y="87.3682" width="125.853" height="54.2468" rx="5.42468" fill="white"/>
<path d="M453.604 112.061C451.619 112.061 450.255 113.602 450.048 115.499H457.191C456.954 113.572 455.738 112.061 453.604 112.061ZM471.121 112.476C468.72 112.476 467.594 114.699 467.594 116.892C467.594 119.055 468.661 121.545 471.121 121.545C473.463 121.545 474.619 119.115 474.619 117.04C474.559 114.936 473.433 112.476 471.121 112.476ZM436.117 112.061C434.132 112.061 432.768 113.602 432.561 115.499H439.704C439.437 113.572 438.222 112.061 436.117 112.061ZM499.723 105.748C497.47 105.748 495.662 107.022 494.832 109.156L494.269 110.638L493.736 109.156C492.965 107.052 491.098 105.718 488.845 105.718C488.549 105.718 488.282 105.748 487.986 105.807V103.791C487.986 100.739 485.792 98.486 482.888 98.486C479.983 98.486 477.79 100.768 477.79 103.791V107.704C476.101 106.281 474.026 105.54 471.773 105.54C471.269 105.54 470.765 105.57 470.291 105.659V103.821C470.291 100.768 468.128 98.5156 465.282 98.5156C462.437 98.5156 460.273 100.798 460.273 103.821V108.119C458.347 106.459 455.976 105.57 453.397 105.57C450.344 105.57 447.528 106.844 445.513 109.156C445.187 109.512 444.891 109.897 444.624 110.342C444.357 109.956 444.061 109.571 443.735 109.186C441.66 106.844 438.815 105.57 435.791 105.57C433.509 105.57 431.375 106.281 429.597 107.615C428.708 106.34 427.226 105.57 425.418 105.57C423.106 105.57 421.15 107.141 420.527 109.452C419.431 105.955 416.704 105.57 415.548 105.57C414.392 105.57 411.665 105.955 410.569 109.452C409.976 107.141 408.049 105.57 405.678 105.57C402.833 105.57 400.551 107.615 400.551 110.223C400.551 111.379 400.817 112.298 401.173 113.305L405.056 124.302C406.36 127.947 408.998 128.481 410.48 128.481C412.762 128.481 414.57 127.295 415.518 125.22C416.437 127.325 418.245 128.51 420.557 128.51C422.039 128.51 424.677 127.977 425.981 124.302L426.425 123.027C428.322 126.406 431.849 128.51 436.147 128.51C439.259 128.51 443.379 127.177 445.276 124.746C447.291 127.088 450.315 128.51 453.812 128.51C456.183 128.51 459.177 127.74 461.281 126.258C462.17 127.532 463.622 128.303 465.312 128.303C466.32 128.303 467.209 128.066 467.95 127.621C469.076 128.184 470.321 128.481 471.625 128.481C474.174 128.481 476.545 127.532 478.353 125.724C479.183 127.414 480.843 128.481 482.858 128.481C485.022 128.481 486.8 127.177 487.541 125.28C487.541 125.28 486.8 129.4 486.8 130.17C486.8 132.867 489.023 134.912 491.957 134.912C494.032 134.912 495.811 133.579 496.67 131.356L504.169 112.713C504.465 112.031 504.613 111.29 504.613 110.46C504.673 107.674 502.094 105.748 499.723 105.748V105.748ZM427.255 112.327L423.343 123.353C422.869 124.687 422.068 125.665 420.587 125.665C419.194 125.665 418.364 124.894 417.949 123.561L415.607 116.21H415.578L413.236 123.561C412.821 124.894 411.991 125.665 410.598 125.665C409.087 125.665 408.316 124.657 407.842 123.353L403.959 112.387C403.633 111.468 403.485 110.875 403.485 110.223C403.485 109.186 404.433 108.385 405.767 108.385C406.893 108.385 407.664 109.097 407.931 110.193L410.569 118.937H410.628L413.295 110.401C413.651 109.156 414.303 108.385 415.607 108.385C416.911 108.385 417.563 109.126 417.919 110.401L420.587 118.937H420.646L423.284 110.193C423.521 109.097 424.351 108.385 425.447 108.385C426.781 108.385 427.73 109.186 427.73 110.608C427.7 111.112 427.463 111.616 427.255 112.327H427.255ZM436.592 121.812C438.903 121.812 440.474 119.974 441.69 119.974C442.638 119.974 443.527 120.923 443.527 121.901C443.527 123.827 439.556 125.695 436.206 125.695C431.138 125.695 427.818 122.019 427.818 117.099C427.818 112.564 431.138 108.445 435.851 108.445C440.711 108.445 443.912 112.861 443.912 116.625C443.912 117.959 443.32 118.64 441.956 118.64H432.383C432.679 120.775 434.517 121.812 436.592 121.812ZM459.592 118.581H450.018C450.315 120.775 452.152 121.782 454.257 121.782C456.568 121.782 458.139 119.945 459.354 119.945C460.303 119.945 461.192 120.893 461.192 121.871C461.192 123.798 457.22 125.665 453.871 125.665C448.803 125.665 445.483 121.99 445.483 117.07C445.483 112.535 448.803 108.415 453.516 108.415C458.376 108.415 461.577 112.831 461.577 116.595C461.548 117.929 460.925 118.581 459.592 118.581ZM471.684 125.695C470.143 125.695 468.424 125.013 467.594 123.65C467.327 124.835 466.586 125.517 465.371 125.517C464.067 125.517 463.148 124.509 463.148 123.027V103.851C463.148 102.339 464.008 101.361 465.342 101.361C466.646 101.361 467.535 102.369 467.535 103.851V109.956C468.809 108.919 470.262 108.385 471.833 108.385C476.634 108.385 479.094 112.891 479.094 117.277C479.064 121.456 476.189 125.695 471.684 125.695ZM485.2 123.175C485.2 124.687 484.251 125.665 482.947 125.665C481.643 125.665 480.695 124.657 480.695 123.175V103.791C480.695 102.28 481.643 101.302 482.947 101.302C484.251 101.302 485.2 102.309 485.2 103.791V123.175ZM501.649 111.646L494.18 130.348C493.825 131.267 493.113 132.126 492.076 132.126C490.535 132.126 489.734 131.178 489.734 130.2C489.734 129.785 489.853 129.311 490.001 128.896L491.957 124.035L487.008 111.675C486.889 111.349 486.8 110.994 486.8 110.519C486.8 109.393 487.986 108.593 488.905 108.593C490.001 108.593 490.772 109.186 491.128 110.193L494.21 118.611L497.53 110.193C497.885 109.186 498.685 108.593 499.753 108.593C500.671 108.593 501.857 109.393 501.857 110.519C501.887 110.964 501.798 111.29 501.649 111.646Z" fill="#0099D6"/>
</g>
<g filter="url(#filter2_d_3_21)">
<rect x="389.7" y="163.314" width="151.893" height="58.7783" rx="5.42468" fill="white"/>
<path d="M428.515 181.117C428.489 180.934 428.333 180.83 428.202 180.83C428.072 180.83 425.494 180.778 425.494 180.778C425.494 180.778 423.333 178.695 423.125 178.461C422.917 178.253 422.5 178.305 422.344 178.357C422.344 178.357 421.927 178.487 421.25 178.695C421.146 178.331 420.964 177.888 420.729 177.419C419.974 175.961 418.829 175.18 417.475 175.18C417.37 175.18 417.292 175.18 417.188 175.206C417.136 175.154 417.11 175.102 417.058 175.076C416.459 174.451 415.704 174.138 414.793 174.164C413.048 174.217 411.304 175.492 409.871 177.732C408.882 179.32 408.127 181.299 407.892 182.835C405.888 183.46 404.481 183.903 404.429 183.903C403.414 184.215 403.388 184.241 403.258 185.205C403.206 185.934 400.55 206.478 400.55 206.478L422.839 210.332L432.499 207.936C432.473 207.936 428.541 181.299 428.515 181.117ZM420.131 179.06C419.61 179.216 419.037 179.398 418.412 179.607C418.412 178.721 418.282 177.471 417.891 176.43C419.219 176.638 419.87 178.148 420.131 179.06ZM417.24 179.945C416.069 180.31 414.793 180.7 413.517 181.091C413.881 179.711 414.558 178.357 415.392 177.445C415.704 177.107 416.147 176.742 416.641 176.534C417.162 177.549 417.266 178.982 417.24 179.945ZM414.845 175.336C415.261 175.336 415.6 175.414 415.886 175.623C415.418 175.857 414.949 176.222 414.532 176.69C413.413 177.888 412.553 179.737 412.215 181.533C411.147 181.872 410.106 182.184 409.168 182.471C409.793 179.633 412.163 175.414 414.845 175.336Z" fill="#95BF47"/>
<path d="M428.203 180.83C428.073 180.83 425.495 180.778 425.495 180.778C425.495 180.778 423.334 178.695 423.126 178.461C423.048 178.383 422.944 178.331 422.84 178.331V210.332L432.5 207.936C432.5 207.936 428.568 181.299 428.542 181.117C428.49 180.934 428.334 180.83 428.203 180.83Z" fill="#5E8E3E"/>
<path d="M417.475 185.803L416.356 189.996C416.356 189.996 415.106 189.423 413.622 189.527C411.434 189.657 411.434 191.037 411.434 191.376C411.565 193.25 416.486 193.667 416.772 198.068C416.981 201.531 414.95 203.9 411.981 204.082C408.44 204.265 406.487 202.182 406.487 202.182L407.242 198.979C407.242 198.979 409.221 200.463 410.783 200.359C411.799 200.307 412.19 199.448 412.137 198.875C411.981 196.427 407.971 196.583 407.711 192.547C407.503 189.162 409.716 185.751 414.611 185.439C416.512 185.309 417.475 185.803 417.475 185.803Z" fill="white"/>
<path d="M445.571 194.734C444.451 194.135 443.878 193.614 443.878 192.911C443.878 192.026 444.685 191.453 445.935 191.453C447.393 191.453 448.695 192.052 448.695 192.052L449.711 188.928C449.711 188.928 448.774 188.198 446.013 188.198C442.16 188.198 439.478 190.412 439.478 193.51C439.478 195.281 440.728 196.609 442.394 197.572C443.748 198.327 444.217 198.874 444.217 199.681C444.217 200.515 443.54 201.192 442.29 201.192C440.441 201.192 438.671 200.228 438.671 200.228L437.577 203.353C437.577 203.353 439.191 204.446 441.925 204.446C445.883 204.446 448.747 202.494 448.747 198.978C448.721 197.078 447.289 195.724 445.571 194.734Z" fill="black"/>
<path d="M461.349 188.147C459.396 188.147 457.86 189.084 456.688 190.49L456.636 190.464L458.329 181.611H453.928L449.632 204.16H454.033L455.491 196.453C456.064 193.537 457.574 191.74 458.98 191.74C459.969 191.74 460.36 192.417 460.36 193.38C460.36 193.979 460.308 194.734 460.178 195.333L458.511 204.16H462.912L464.63 195.047C464.812 194.083 464.943 192.938 464.943 192.157C464.969 189.657 463.667 188.147 461.349 188.147Z" fill="black"/>
<path d="M474.943 188.147C469.631 188.147 466.116 192.938 466.116 198.276C466.116 201.687 468.225 204.447 472.183 204.447C477.39 204.447 480.906 199.786 480.906 194.318C480.932 191.167 479.083 188.147 474.943 188.147ZM472.782 201.088C471.271 201.088 470.647 199.812 470.647 198.197C470.647 195.672 471.948 191.558 474.344 191.558C475.906 191.558 476.427 192.912 476.427 194.214C476.427 196.922 475.099 201.088 472.782 201.088Z" fill="black"/>
<path d="M492.206 188.147C489.237 188.147 487.545 190.776 487.545 190.776H487.493L487.753 188.407H483.847C483.665 189.995 483.3 192.443 482.962 194.266L479.889 210.409H484.29L485.514 203.874H485.618C485.618 203.874 486.529 204.447 488.196 204.447C493.377 204.447 496.762 199.135 496.762 193.771C496.762 190.802 495.434 188.147 492.206 188.147ZM487.987 201.14C486.842 201.14 486.165 200.489 486.165 200.489L486.894 196.375C487.415 193.615 488.847 191.792 490.383 191.792C491.737 191.792 492.154 193.042 492.154 194.214C492.154 197.078 490.461 201.14 487.987 201.14Z" fill="black"/>
<path d="M503.063 181.819C501.657 181.819 500.537 182.939 500.537 184.371C500.537 185.673 501.37 186.584 502.62 186.584H502.672C504.052 186.584 505.224 185.647 505.25 184.032C505.25 182.757 504.391 181.819 503.063 181.819Z" fill="black"/>
<path d="M496.892 204.134H501.293L504.287 188.511H499.861L496.892 204.134Z" fill="black"/>
<path d="M515.511 188.485H512.438L512.594 187.756C512.855 186.246 513.74 184.918 515.224 184.918C516.005 184.918 516.63 185.152 516.63 185.152L517.489 181.689C517.489 181.689 516.734 181.298 515.094 181.298C513.532 181.298 511.969 181.741 510.772 182.757C509.261 184.032 508.558 185.881 508.22 187.756L508.09 188.485H506.033L505.382 191.818H507.439L505.095 204.16H509.496L511.839 191.818H514.886L515.511 188.485Z" fill="black"/>
<path d="M526.135 188.511C526.135 188.511 523.375 195.463 522.151 199.265H522.099C522.021 198.041 521.005 188.511 521.005 188.511H516.37L519.026 202.858C519.078 203.171 519.052 203.379 518.922 203.587C518.401 204.577 517.542 205.54 516.526 206.243C515.693 206.842 514.756 207.233 514.027 207.493L515.251 211.243C516.136 211.06 518.011 210.305 519.573 208.847C521.578 206.972 523.453 204.056 525.354 200.098L530.743 188.511H526.135Z" fill="black"/>
</g>
<g filter="url(#filter3_d_3_21)">
<rect x="389.7" y="243.791" width="75.9455" height="54.2468" rx="5.42468" fill="white"/>
<path d="M431.77 261.101C430.676 261.686 430.285 262.65 430.285 265.321C430.285 265.321 430.832 264.783 431.645 264.483C432.239 264.278 432.74 263.946 433.037 263.725C433.959 263.045 434.084 262.176 434.084 260.706C434.084 260.706 432.583 260.659 431.77 261.101Z" fill="black"/>
<path d="M425.36 261.733C424.485 262.524 424.219 263.772 424.219 263.772L421.28 275.182L418.857 265.826C418.622 264.847 418.185 263.598 417.512 262.776C416.668 261.733 414.933 261.67 414.745 261.67C414.558 261.67 412.807 261.733 411.947 262.792C411.275 263.63 410.837 264.862 410.603 265.842L408.179 275.197L405.272 263.772C405.272 263.772 405.022 262.508 404.13 261.733C402.692 260.453 400.551 260.722 400.551 260.722L406.132 282.119C406.132 282.119 407.976 282.261 408.899 281.771C410.102 281.155 410.696 280.665 411.431 277.742C412.088 275.15 413.917 267.533 414.089 266.98C414.167 266.711 414.276 266.063 414.745 266.063C415.23 266.063 415.324 266.695 415.402 266.98C415.574 267.517 417.387 275.15 418.059 277.742C418.794 280.649 419.373 281.123 420.592 281.771C421.514 282.261 423.359 282.119 423.359 282.119L428.94 260.738C428.94 260.738 426.798 260.469 425.36 261.733ZM434.083 264.214C434.083 264.214 433.739 264.752 432.942 265.226C432.426 265.51 431.942 265.716 431.41 265.969C430.535 266.395 430.284 266.885 430.284 267.612V282.119C430.284 282.119 431.707 282.293 432.614 281.835C433.802 281.218 434.068 280.634 434.083 277.963V264.214ZM448.028 271.468L455.11 260.785C455.11 260.785 452.124 260.264 450.639 261.639C449.685 262.508 448.622 264.072 448.622 264.072L446.027 267.897C445.886 268.086 445.746 268.307 445.48 268.307C445.214 268.307 445.042 268.102 444.933 267.897L442.306 264.088C442.306 264.088 441.259 262.524 440.29 261.654C438.82 260.28 435.819 260.801 435.819 260.801L442.916 271.452L435.819 282.087C435.819 282.087 438.945 282.498 440.415 281.123C441.368 280.254 442.291 278.816 442.291 278.816L444.886 275.008C445.026 274.818 445.167 274.597 445.433 274.597C445.699 274.597 445.871 274.802 445.98 275.008L448.575 278.816C448.575 278.816 449.544 280.223 450.482 281.123C451.952 282.498 455.031 282.087 455.031 282.087L448.028 271.468Z" fill="black"/>
</g>
<g filter="url(#filter4_d_3_21)">
<rect x="389.7" y="319.736" width="151.891" height="54.2468" rx="5.42468" fill="white"/>
<g clip-path="url(#clip0_3_21)">
<path d="M447.922 346.256C447.922 343.778 446.133 341.659 443.435 341.659C440.738 341.659 438.894 343.806 438.894 346.256C438.894 348.678 440.683 350.797 443.38 350.797C444.509 350.797 445.39 350.467 446.188 349.834L447.371 350.907L448.032 350.164L446.848 349.201C447.537 348.375 447.922 347.329 447.922 346.256ZM446.133 348.54L444.509 347.081L443.848 347.825L445.472 349.228C444.922 349.614 444.234 349.889 443.463 349.889C441.454 349.889 439.995 348.265 439.995 346.228C439.995 344.219 441.454 342.567 443.463 342.567C445.472 342.567 446.931 344.191 446.931 346.228C446.931 347.136 446.656 347.935 446.133 348.54ZM456.289 346.916C456.289 348.816 455.271 349.834 453.592 349.834C451.913 349.834 450.895 348.76 450.895 346.861V341.742H449.876V346.916C449.876 349.449 451.39 350.742 453.592 350.742C455.794 350.742 457.308 349.394 457.308 346.806V341.742H456.289V346.916ZM516.156 349.889C514.202 349.889 512.743 348.265 512.743 346.228C512.743 344.219 514.202 342.567 516.156 342.567C517.339 342.567 518.165 343.063 518.963 343.806L519.624 343.063C518.716 342.21 517.78 341.659 516.156 341.659C513.569 341.659 511.669 343.723 511.669 346.256C511.669 348.788 513.569 350.797 516.101 350.797C517.725 350.797 518.743 350.192 519.652 349.228L518.991 348.623C518.193 349.394 517.394 349.889 516.156 349.889ZM522.459 349.724V346.641H527.276V345.733H522.459V342.705H527.854V341.797H521.441V350.687H527.909V349.724H522.459ZM498.347 341.824H495.044V350.687H496.063V347.549H498.21C500.109 347.549 501.678 346.531 501.678 344.632C501.678 342.87 500.384 341.824 498.347 341.824ZM500.659 344.687C500.659 345.87 499.696 346.641 498.237 346.641H496.035V342.76H498.292C499.696 342.705 500.659 343.393 500.659 344.687ZM434.407 345.733C432.453 345.347 431.985 344.824 431.985 343.999C431.985 343.2 432.728 342.595 433.884 342.595C434.793 342.595 435.618 342.87 436.472 343.558L437.022 342.76C436.114 342.017 435.233 341.687 433.939 341.687C432.26 341.687 431.022 342.705 431.022 344.109C431.022 345.568 431.985 346.256 433.994 346.696C435.839 347.081 436.306 347.549 436.306 348.375C436.306 349.283 435.508 349.889 434.352 349.889C433.114 349.889 432.205 349.504 431.324 348.65L430.719 349.394C431.792 350.357 432.921 350.797 434.325 350.797C436.059 350.797 437.352 349.779 437.352 348.265C437.27 346.861 436.361 346.201 434.407 345.733ZM479.493 346.641H484.31V345.733H479.493V342.705H484.888V341.797H478.474V350.687H484.943V349.724H479.493V346.641ZM490.172 345.733C488.218 345.347 487.75 344.824 487.75 343.999C487.75 343.2 488.493 342.595 489.649 342.595C490.558 342.595 491.384 342.87 492.237 343.558L492.787 342.76C491.879 342.017 490.998 341.687 489.705 341.687C488.026 341.687 486.787 342.705 486.787 344.109C486.787 345.568 487.75 346.256 489.76 346.696C491.604 347.081 492.072 347.549 492.072 348.375C492.072 349.283 491.273 349.889 490.117 349.889C488.879 349.889 487.97 349.504 487.09 348.65L486.484 349.394C487.558 350.357 488.686 350.797 490.09 350.797C491.824 350.797 493.118 349.779 493.118 348.265C493.035 346.861 492.127 346.201 490.172 345.733ZM462.648 341.769L458.602 350.687H459.62L460.693 348.32H465.51L466.529 350.687H467.602L463.556 341.769H462.648ZM461.079 347.439L463.088 342.953L465.097 347.439H461.079ZM505.889 341.769L501.843 350.687H502.861L503.935 348.32H508.752L509.77 350.687H510.844L506.797 341.769H505.889ZM504.32 347.439L506.329 342.953L508.339 347.439H504.32ZM476.355 344.467C476.355 343.723 476.08 343.118 475.694 342.677C475.144 342.127 474.291 341.769 473.162 341.769H469.336V350.632H470.355V347.219H472.887L475.474 350.632H476.713L474.015 347.026C475.337 346.751 476.355 345.925 476.355 344.467ZM470.327 346.311V342.705H473.08C474.483 342.705 475.337 343.366 475.337 344.439C475.337 345.568 474.373 346.228 473.024 346.228H470.327V346.311ZM406.607 347.329C406.993 347.715 407.681 347.715 408.121 347.329L414.81 340.641C415.663 339.787 416.957 339.787 417.782 340.641C418.168 341.026 418.856 341.026 419.296 340.641C419.681 340.255 419.681 339.567 419.296 339.127C417.672 337.503 414.975 337.503 413.351 339.127L406.607 345.788C406.167 346.256 406.167 346.861 406.607 347.329ZM416.984 342.815C417.369 342.43 417.369 341.742 416.984 341.301C416.599 340.916 415.911 340.916 415.47 341.301L408.809 348.045C407.956 348.898 406.662 348.898 405.836 348.045C404.983 347.192 404.983 345.898 405.836 345.072L412.415 338.494C411.562 337.64 410.268 337.64 409.442 338.494L404.378 343.558C402.754 345.182 402.754 347.88 404.378 349.504C406.002 351.128 408.699 351.128 410.323 349.504L416.984 342.815ZM417.782 343.558L411.039 350.302C410.653 350.687 410.653 351.375 411.039 351.816C411.424 352.201 412.112 352.201 412.553 351.816L419.241 345.127C420.094 344.274 421.388 344.274 422.214 345.127C423.039 345.98 423.067 347.274 422.214 348.1L415.635 354.623C416.489 355.477 417.782 355.477 418.608 354.623L423.728 349.504C425.352 347.88 425.352 345.182 423.728 343.558C422.049 341.934 419.406 341.934 417.782 343.558ZM421.498 345.788C421.113 345.402 420.425 345.402 419.984 345.788L413.296 352.531C412.442 353.385 411.149 353.385 410.323 352.531C409.938 352.146 409.25 352.146 408.809 352.531C408.424 352.917 408.424 353.605 408.809 354.045C410.433 355.669 413.131 355.669 414.755 354.045L421.443 347.357C421.883 346.861 421.883 346.256 421.498 345.788Z" fill="black"/>
</g>
</g>
<g filter="url(#filter5_d_3_21)">
<rect x="389.7" y="395.682" width="131.277" height="54.2468" rx="5.42468" fill="white"/>
<path d="M432.014 417.856C432.014 416.045 430.253 414.122 427.206 414.122C423.785 414.122 420.026 416.632 419.451 421.64C418.864 426.697 422.011 428.945 425.183 428.945C428.355 428.945 430.016 427.709 431.714 426.061C430.253 424.225 428.368 425.074 428.006 425.261C427.606 425.461 427.094 425.736 426.045 425.736C424.821 425.736 423.572 425.186 423.572 422.901C431.415 422.127 432.014 419.667 432.014 417.856ZM428.13 418.156C428.08 418.718 427.856 419.679 423.885 420.216C424.721 417.244 426.32 417.019 427.056 417.019C427.743 417.019 428.18 417.556 428.13 418.156ZM414.843 418.643C414.843 418.643 413.158 423.938 413.02 424.375C412.97 423.925 411.734 414.422 411.734 414.422C408.862 414.422 407.326 416.47 406.514 418.63C406.514 418.63 404.466 423.938 404.291 424.387C404.279 423.975 403.979 418.693 403.979 418.693C403.804 416.045 401.382 414.434 399.421 414.434L401.794 428.833C404.803 428.82 406.427 426.785 407.276 424.624C407.276 424.624 409.087 419.941 409.161 419.729C409.174 419.929 410.46 428.833 410.46 428.833C413.482 428.833 415.106 426.922 415.98 424.837L420.213 414.434C417.229 414.434 415.655 416.47 414.843 418.643ZM443.103 414.097C441.243 414.097 439.819 415.109 438.62 416.595V416.582L439.694 407.928C437.222 407.928 435.211 410.076 434.824 413.273L432.951 428.72C434.374 428.72 435.885 428.308 436.697 427.259C437.421 428.196 438.508 428.945 440.119 428.945C444.29 428.945 447.149 424.1 447.149 419.554C447.124 415.408 445.114 414.097 443.103 414.097ZM442.716 421.527C442.279 424.062 440.868 425.786 439.507 425.786C438.133 425.786 437.546 425.174 437.546 425.174C437.808 422.951 437.971 421.59 438.47 420.416C438.97 419.242 440.156 417.369 441.392 417.369C442.604 417.369 443.153 418.98 442.716 421.527ZM457.564 414.434H454.654L454.667 414.285C454.867 412.386 455.316 411.387 456.802 411.225C457.814 411.125 458.263 410.601 458.376 410.026C458.463 409.577 458.738 408.016 458.738 408.016C452.894 407.978 451.058 410.501 450.583 414.347L450.571 414.434H450.509C449.559 414.434 448.51 415.508 448.336 416.869L448.273 417.369H450.221L448.585 430.881L448.086 433.303C448.148 433.303 448.223 433.316 448.286 433.316C451.021 433.216 452.769 431.056 453.156 427.921L454.43 417.369H455.341C456.24 417.369 457.289 416.47 457.477 414.971L457.564 414.434ZM472.699 414.185C469.34 414.185 466.168 416.657 465.194 420.541C464.22 424.425 465.694 429.02 470.639 429.02C475.572 429.02 478.419 424.237 478.419 420.254C478.419 416.295 475.734 414.185 472.699 414.185ZM474.061 421.403C473.886 423.163 473.111 425.836 470.989 425.836C468.853 425.836 469.153 422.714 469.365 421.228C469.59 419.642 470.477 417.381 472.387 417.381C474.098 417.381 474.26 419.417 474.061 421.403ZM495.015 418.643C495.015 418.643 493.329 423.938 493.192 424.375C493.142 423.925 491.906 414.422 491.906 414.422C489.033 414.422 487.497 416.47 486.686 418.63C486.686 418.63 484.638 423.938 484.463 424.387C484.45 423.975 484.151 418.693 484.151 418.693C483.976 416.045 481.553 414.434 479.593 414.434L481.953 428.833C484.962 428.82 486.586 426.785 487.435 424.624C487.435 424.624 489.246 419.941 489.308 419.729C489.321 419.929 490.607 428.833 490.607 428.833C493.629 428.833 495.252 426.922 496.126 424.837L500.36 414.434C497.388 414.434 495.814 416.47 495.015 418.643ZM460.311 408.016L457.864 427.759L457.364 430.194C457.427 430.194 457.502 430.206 457.564 430.206C460.199 430.169 462.072 427.859 462.422 424.949L463.833 413.623C464.258 410.164 462.197 408.016 460.311 408.016Z" fill="#4353FF"/>
</g>
<path d="M148.845 231.664H261.819M261.819 231.664V272.35M261.819 231.664V194.234M389.7 40.7158H261.819V115.576M261.819 115.576H389.7M261.819 115.576V194.234M261.819 272.35H389.7M261.819 272.35V347.21M261.819 347.21H389.7M261.819 347.21V422.613H389.7M261.819 194.234H389.7" stroke="#D6DAE4" stroke-width="2.16987" stroke-dasharray="5.42 5.42"/>
<circle cx="261.678" cy="231.665" r="5.42468" fill="#D6DAE4"/>
<defs>
<filter id="filter0_d_3_21" x="378.851" y="0.573252" width="173.59" height="75.9455" filterUnits="userSpaceOnUse" color-interpolation-filters="sRGB">
<feFlood flood-opacity="0" result="BackgroundImageFix"/>
<feColorMatrix in="SourceAlpha" type="matrix" values="0 0 0 0 0 0 0 0 0 0 0 0 0 0 0 0 0 0 127 0" result="hardAlpha"/>
<feOffset/>
<feGaussianBlur stdDeviation="5.42468"/>
<feColorMatrix type="matrix" values="0 0 0 0 0.611765 0 0 0 0 0.627451 0 0 0 0 0.67451 0 0 0 0.4 0"/>
<feBlend mode="normal" in2="BackgroundImageFix" result="effect1_dropShadow_3_21"/>
<feBlend mode="normal" in="SourceGraphic" in2="effect1_dropShadow_3_21" result="shape"/>
</filter>
<filter id="filter1_d_3_21" x="378.851" y="76.5188" width="147.551" height="75.9455" filterUnits="userSpaceOnUse" color-interpolation-filters="sRGB">
<feFlood flood-opacity="0" result="BackgroundImageFix"/>
<feColorMatrix in="SourceAlpha" type="matrix" values="0 0 0 0 0 0 0 0 0 0 0 0 0 0 0 0 0 0 127 0" result="hardAlpha"/>
<feOffset/>
<feGaussianBlur stdDeviation="5.42468"/>
<feColorMatrix type="matrix" values="0 0 0 0 0.611765 0 0 0 0 0.627451 0 0 0 0 0.67451 0 0 0 0.4 0"/>
<feBlend mode="normal" in2="BackgroundImageFix" result="effect1_dropShadow_3_21"/>
<feBlend mode="normal" in="SourceGraphic" in2="effect1_dropShadow_3_21" result="shape"/>
</filter>
<filter id="filter2_d_3_21" x="378.851" y="152.464" width="173.591" height="80.477" filterUnits="userSpaceOnUse" color-interpolation-filters="sRGB">
<feFlood flood-opacity="0" result="BackgroundImageFix"/>
<feColorMatrix in="SourceAlpha" type="matrix" values="0 0 0 0 0 0 0 0 0 0 0 0 0 0 0 0 0 0 127 0" result="hardAlpha"/>
<feOffset/>
<feGaussianBlur stdDeviation="5.42468"/>
<feColorMatrix type="matrix" values="0 0 0 0 0.611765 0 0 0 0 0.627451 0 0 0 0 0.67451 0 0 0 0.4 0"/>
<feBlend mode="normal" in2="BackgroundImageFix" result="effect1_dropShadow_3_21"/>
<feBlend mode="normal" in="SourceGraphic" in2="effect1_dropShadow_3_21" result="shape"/>
</filter>
<filter id="filter3_d_3_21" x="378.851" y="232.941" width="97.6442" height="75.9455" filterUnits="userSpaceOnUse" color-interpolation-filters="sRGB">
<feFlood flood-opacity="0" result="BackgroundImageFix"/>
<feColorMatrix in="SourceAlpha" type="matrix" values="0 0 0 0 0 0 0 0 0 0 0 0 0 0 0 0 0 0 127 0" result="hardAlpha"/>
<feOffset/>
<feGaussianBlur stdDeviation="5.42468"/>
<feColorMatrix type="matrix" values="0 0 0 0 0.611765 0 0 0 0 0.627451 0 0 0 0 0.67451 0 0 0 0.4 0"/>
<feBlend mode="normal" in2="BackgroundImageFix" result="effect1_dropShadow_3_21"/>
<feBlend mode="normal" in="SourceGraphic" in2="effect1_dropShadow_3_21" result="shape"/>
</filter>
<filter id="filter4_d_3_21" x="378.851" y="308.887" width="173.59" height="75.9455" filterUnits="userSpaceOnUse" color-interpolation-filters="sRGB">
<feFlood flood-opacity="0" result="BackgroundImageFix"/>
<feColorMatrix in="SourceAlpha" type="matrix" values="0 0 0 0 0 0 0 0 0 0 0 0 0 0 0 0 0 0 127 0" result="hardAlpha"/>
<feOffset/>
<feGaussianBlur stdDeviation="5.42468"/>
<feColorMatrix type="matrix" values="0 0 0 0 0.611765 0 0 0 0 0.627451 0 0 0 0 0.67451 0 0 0 0.4 0"/>
<feBlend mode="normal" in2="BackgroundImageFix" result="effect1_dropShadow_3_21"/>
<feBlend mode="normal" in="SourceGraphic" in2="effect1_dropShadow_3_21" result="shape"/>
</filter>
<filter id="filter5_d_3_21" x="378.851" y="384.832" width="152.976" height="75.9455" filterUnits="userSpaceOnUse" color-interpolation-filters="sRGB">
<feFlood flood-opacity="0" result="BackgroundImageFix"/>
<feColorMatrix in="SourceAlpha" type="matrix" values="0 0 0 0 0 0 0 0 0 0 0 0 0 0 0 0 0 0 127 0" result="hardAlpha"/>
<feOffset/>
<feGaussianBlur stdDeviation="5.42468"/>
<feColorMatrix type="matrix" values="0 0 0 0 0.611765 0 0 0 0 0.627451 0 0 0 0 0.67451 0 0 0 0.4 0"/>
<feBlend mode="normal" in2="BackgroundImageFix" result="effect1_dropShadow_3_21"/>
<feBlend mode="normal" in="SourceGraphic" in2="effect1_dropShadow_3_21" result="shape"/>
</filter>
<clipPath id="clip0_3_21">
<rect width="130.192" height="21.7446" fill="white" transform="translate(400.551 335.549)"/>
</clipPath>
</defs>
</svg>
