<svg width="51" height="50" viewBox="0 0 51 50" fill="none" xmlns="http://www.w3.org/2000/svg">
<g clip-path="url(#clip0_6_18)">
<path fill-rule="evenodd" clip-rule="evenodd" d="M8.51636 28.2699V1.7301C10.6104 0.625465 12.9973 0 15.5307 0C18.064 0 20.451 0.625461 22.545 1.73009V28.2699C20.451 29.3745 18.064 30 15.5307 30C12.9973 30 10.6104 29.3745 8.51636 28.2699Z" fill="white"/>
<path d="M25.5002 0C11.6931 0 0.5 11.2096 0.5 25.0371C0.5 37.4389 9.51305 47.8348 21.3306 49.8236V30.2607H15.2999V23.2657H21.3306V18.108C21.3306 12.1236 24.9803 8.8624 30.3118 8.8624C32.8652 8.8624 35.0595 9.05296 35.6966 9.13688V15.3922L31.9988 15.394C29.1001 15.394 28.5412 16.7733 28.5412 18.7979V23.2621H35.458L34.5558 30.2571H28.5412V50C40.9105 48.4923 50.5 37.8257 50.5 25.03C50.5 11.2096 39.3069 0 25.5002 0Z" fill="#1778F2"/>
</g>
<defs>
<clipPath id="clip0_6_18">
<rect width="50" height="50" fill="white" transform="translate(0.5)"/>
</clipPath>
</defs>
</svg>
