<svg width="121" height="38" viewBox="0 0 121 38" fill="none" xmlns="http://www.w3.org/2000/svg">
<g clip-path="url(#clip0_3227_145)">
<path d="M4.11814 6.08292V7.9335H8.03737V11.0059H4.11814V22.1399H0.569855V5.77823C0.569855 1.7571 2.96867 0.000281052 6.48028 0.000281052C7.25754 -0.0187935 8.03297 0.0843682 8.77821 0.305993V3.31317C8.30768 3.24907 7.83355 3.21504 7.35869 3.21127C5.33488 3.21025 4.11814 3.88587 4.11814 6.08292ZM36.7274 13.8276C36.7274 16.1578 35.8018 18.3926 34.154 20.0403C32.5063 21.688 30.2715 22.6137 27.9413 22.6137C25.6111 22.6137 23.3763 21.688 21.7285 20.0403C20.0808 18.3926 19.1551 16.1578 19.1551 13.8276C19.1903 11.5205 20.1314 9.31989 21.7753 7.70083C23.4192 6.08178 25.634 5.17426 27.9413 5.17426C30.2486 5.17426 32.4634 6.08178 34.1073 7.70083C35.7512 9.31989 36.6923 11.5205 36.7274 13.8276ZM22.7666 13.8612C22.7306 14.5563 22.8371 15.2514 23.0794 15.9039C23.3217 16.5564 23.6947 17.1525 24.1756 17.6557C24.6565 18.1588 25.2352 18.5584 25.8761 18.8299C26.517 19.1014 27.2066 19.2391 27.9026 19.2346C28.985 19.2901 30.0591 19.0194 30.9859 18.4575C31.9127 17.8956 32.6495 17.0685 33.1009 16.0832C33.5523 15.0978 33.6976 13.9997 33.5178 12.9309C33.3381 11.8621 32.8417 10.8718 32.0928 10.0883C31.3439 9.30488 30.3771 8.76423 29.3175 8.53641C28.2579 8.30858 27.1543 8.40408 26.1496 8.81054C25.1449 9.21699 24.2853 9.91568 23.6822 10.8161C23.079 11.7166 22.7601 12.7774 22.7666 13.8612ZM49.1465 5.55098V8.6937H48.0602C45.4249 8.6937 43.1943 10.2141 43.1943 13.2895V22.1429H39.646V5.55098H42.9578V7.71338C43.5264 6.97558 44.2592 6.38063 45.0981 5.97586C45.937 5.5711 46.8588 5.36769 47.7901 5.38182C48.2479 5.37445 48.7045 5.43139 49.1465 5.55098ZM66.2459 15.0127H53.8728C54.0572 16.2878 54.7171 17.4458 55.72 18.2545C56.723 19.0631 57.9947 19.4624 59.2798 19.3722C61.0816 19.3596 62.8104 18.6585 64.1121 17.4126L65.8016 19.846C64.0271 21.5669 61.6498 22.5251 59.1779 22.5159C58.0295 22.5548 56.8848 22.3651 55.8104 21.9578C54.736 21.5504 53.7532 20.9335 52.9193 20.143C52.0854 19.3525 51.417 18.4041 50.9528 17.353C50.4887 16.3018 50.2381 15.1689 50.2157 14.0201C50.1933 12.8712 50.3995 11.7294 50.8222 10.661C51.245 9.59255 51.8759 8.61879 52.6784 7.79634C53.4808 6.97389 54.4387 6.31915 55.4964 5.87018C56.5541 5.42121 57.6905 5.18697 58.8396 5.18107C59.8504 5.14703 60.8575 5.31988 61.7991 5.68904C62.7407 6.05819 63.597 6.61585 64.3153 7.3278C65.0336 8.03976 65.5989 8.89098 65.9765 9.82925C66.3541 10.7675 66.5359 11.773 66.5109 12.7841C66.5011 13.5345 66.4106 14.2817 66.2409 15.0127H66.2459ZM53.9461 12.242H62.9687C62.9761 11.6901 62.8694 11.1426 62.6554 10.6338C62.4414 10.1251 62.1246 9.66603 61.7249 9.28538C61.3252 8.90473 60.8513 8.61072 60.3327 8.42176C59.8141 8.23279 59.262 8.15295 58.7112 8.18724C57.5634 8.18625 56.4528 8.59363 55.5779 9.33651C54.7031 10.0793 54.121 11.1092 53.936 12.242H53.9461ZM83.7174 11.7691V22.1429H80.1691V12.242C80.2127 11.7452 80.1509 11.2449 79.9879 10.7736C79.8248 10.3024 79.5642 9.87088 79.2229 9.5073C78.8816 9.14371 78.4675 8.85626 78.0075 8.66373C77.5475 8.4712 77.0519 8.37793 76.5535 8.39003C76.0464 8.37408 75.5416 8.46333 75.0707 8.65215C74.5998 8.84098 74.1732 9.12529 73.8176 9.48717C73.462 9.84905 73.1852 10.2806 73.0048 10.7547C72.8243 11.2289 72.7439 11.7352 72.7688 12.242V22.1429H69.2205V5.55098H72.5324V7.20692C73.1723 6.53992 73.9451 6.01482 74.801 5.66566C75.6568 5.31649 76.5764 5.15105 77.5002 5.18005C81.4143 5.17903 83.7123 7.88254 83.7123 11.7681L83.7174 11.7691ZM102.248 9.03202L99.7469 10.9916C99.2801 10.2249 98.6256 9.58987 97.8451 9.14643C97.0647 8.70299 96.1841 8.46581 95.2865 8.45728C93.8885 8.50438 92.5635 9.09284 91.5912 10.0984C90.6189 11.104 90.0753 12.4481 90.0753 13.8469C90.0753 15.2458 90.6189 16.5898 91.5912 17.5955C92.5635 18.6011 93.8885 19.1895 95.2865 19.2366C96.1799 19.2265 97.0564 18.9922 97.8357 18.5553C98.615 18.1184 99.2721 17.4928 99.7469 16.7359L102.248 18.6619C101.521 19.8598 100.492 20.8459 99.2646 21.5218C98.0371 22.1978 96.6539 22.5398 95.2529 22.5139C94.1068 22.5263 92.9695 22.3113 91.9071 21.8813C90.8446 21.4513 89.8779 20.8148 89.0631 20.0087C88.2482 19.2027 87.6012 18.243 87.1598 17.1852C86.7183 16.1274 86.491 14.9926 86.491 13.8464C86.491 12.7002 86.7183 11.5654 87.1598 10.5077C87.6012 9.44994 88.2482 8.49025 89.0631 7.68417C89.8779 6.87809 90.8446 6.24163 91.9071 5.81162C92.9695 5.38162 94.1068 5.16661 95.2529 5.17903C96.6538 5.14637 98.0384 5.48565 99.2655 6.1623C100.493 6.83896 101.519 7.82881 102.239 9.031L102.248 9.03202ZM120.305 15.0137H107.932C108.116 16.2888 108.776 17.4469 109.779 18.2555C110.782 19.0641 112.054 19.4634 113.339 19.3732C115.141 19.3605 116.869 18.6594 118.171 17.4136L119.861 19.847C118.086 21.5679 115.709 22.5262 113.237 22.5169C112.089 22.5559 110.944 22.3661 109.87 21.9588C108.795 21.5514 107.812 20.9346 106.978 20.144C106.145 19.3535 105.476 18.4051 105.012 17.354C104.548 16.3029 104.297 15.1699 104.275 14.0211C104.252 12.8723 104.459 11.7304 104.881 10.662C105.304 9.59357 105.935 8.61981 106.737 7.79736C107.54 6.97491 108.498 6.32016 109.556 5.87119C110.613 5.42222 111.75 5.18798 112.899 5.18209C113.909 5.14805 114.917 5.3209 115.858 5.69006C116.8 6.05921 117.656 6.61687 118.374 7.32882C119.093 8.04078 119.658 8.892 120.036 9.83027C120.413 10.7685 120.595 11.774 120.57 12.7851C120.56 13.5352 120.47 14.282 120.3 15.0127L120.305 15.0137ZM108.005 12.243H117.028C117.035 11.6911 116.929 11.1436 116.715 10.6348C116.5 10.1261 116.184 9.66705 115.784 9.2864C115.384 8.90576 114.91 8.61174 114.392 8.42278C113.873 8.23381 113.321 8.15397 112.77 8.18826C111.623 8.18819 110.514 8.59587 109.64 9.33846C108.766 10.081 108.184 11.1101 107.999 12.242L108.005 12.243ZM15.7424 0.371211H12.1941V22.1419H15.7424V0.371211Z" fill="#9CA0AC"/>
<path d="M48.2212 32.9664C48.2443 33.2932 48.2002 33.6212 48.0915 33.9302C47.9827 34.2392 47.8117 34.5226 47.5891 34.7628C47.3664 35.003 47.0968 35.195 46.7969 35.3269C46.4971 35.4587 46.1734 35.5276 45.8458 35.5293C45.5439 35.5425 45.2433 35.483 44.9693 35.3556C44.6953 35.2283 44.4559 35.0369 44.2714 34.7976V35.4091H43.0485V27.9854H44.3845V30.9844C44.5733 30.7886 44.8016 30.6353 45.0543 30.5346C45.307 30.4339 45.5782 30.3882 45.8499 30.4005C46.1774 30.4027 46.5009 30.4721 46.8005 30.6044C47.1001 30.7367 47.3694 30.929 47.5916 31.1695C47.8139 31.41 47.9845 31.6936 48.0928 32.0027C48.201 32.3118 48.2448 32.6398 48.2212 32.9664ZM46.8648 32.9562C46.8768 32.7831 46.8528 32.6093 46.7944 32.4459C46.736 32.2825 46.6445 32.1328 46.5256 32.0064C46.4066 31.88 46.2629 31.7796 46.1033 31.7114C45.9437 31.6432 45.7717 31.6087 45.5982 31.6101C45.2601 31.6395 44.9452 31.7946 44.7159 32.0447C44.4865 32.2949 44.3593 32.6219 44.3593 32.9613C44.3593 33.3007 44.4865 33.6278 44.7159 33.8779C44.9452 34.1281 45.2601 34.2832 45.5982 34.3126C45.7725 34.3136 45.9452 34.2785 46.1053 34.2096C46.2654 34.1406 46.4095 34.0392 46.5285 33.9118C46.6475 33.7843 46.7388 33.6337 46.7967 33.4692C46.8546 33.3048 46.8778 33.1301 46.8648 32.9562Z" fill="#9CA0AC"/>
<path d="M53.8157 30.5103L51.4719 35.8358C51.3523 36.2606 51.0971 36.6346 50.7451 36.9008C50.3932 37.1671 49.9637 37.3109 49.5224 37.3104C49.2316 37.3061 48.9425 37.266 48.6614 37.1912V36.0702C48.8886 36.0896 49.0772 36.11 49.2351 36.11C49.4549 36.1308 49.6753 36.0765 49.8604 35.956C50.0454 35.8356 50.1842 35.656 50.2542 35.4466L50.4029 35.1194L48.5228 30.5063H49.9383L51.1356 33.7234L52.4135 30.5063L53.8157 30.5103Z" fill="#9CA0AC"/>
<path d="M64.7235 32.372V35.4108H63.3865V32.5575C63.4001 32.4361 63.3875 32.3132 63.3496 32.1972C63.3117 32.0811 63.2494 31.9744 63.1669 31.8845C63.0843 31.7945 62.9834 31.7232 62.871 31.6755C62.7586 31.6277 62.6373 31.6046 62.5152 31.6077C62.3943 31.603 62.2736 31.6236 62.1611 31.6682C62.0486 31.7128 61.9466 31.7805 61.8618 31.8669C61.777 31.9532 61.7111 32.0564 61.6685 32.1697C61.6259 32.283 61.6075 32.404 61.6144 32.5249V35.4047H60.2774V32.5514C60.2912 32.43 60.2787 32.307 60.2409 32.1909C60.2031 32.0747 60.1408 31.968 60.0582 31.878C59.9756 31.788 59.8746 31.7167 59.7622 31.669C59.6497 31.6213 59.5283 31.5984 59.4061 31.6016C59.2824 31.5969 59.159 31.6186 59.0443 31.6654C58.9295 31.7121 58.8261 31.7828 58.7408 31.8727C58.6556 31.9625 58.5905 32.0696 58.5499 32.1866C58.5093 32.3036 58.4941 32.428 58.5053 32.5514V35.4047H57.1694V30.5051H58.3922V30.9413C58.574 30.7613 58.7905 30.6202 59.0286 30.5266C59.2667 30.4331 59.5214 30.389 59.7771 30.3971C60.0597 30.3798 60.3421 30.4353 60.597 30.5584C60.852 30.6816 61.0711 30.8681 61.2333 31.1002C61.4386 30.8728 61.6905 30.6923 61.9719 30.5709C62.2532 30.4496 62.5574 30.3903 62.8637 30.3971C63.1214 30.384 63.3789 30.4271 63.6183 30.5233C63.8577 30.6196 64.0733 30.7667 64.2502 30.9546C64.4271 31.1424 64.561 31.3665 64.6428 31.6112C64.7245 31.856 64.752 32.1156 64.7235 32.372Z" fill="#9CA0AC"/>
<path d="M67.425 28.7292C67.43 28.9 67.384 29.0683 67.2927 29.2127C67.2014 29.3571 67.069 29.4709 66.9125 29.5395C66.7561 29.6081 66.5827 29.6284 66.4147 29.5978C66.2466 29.5672 66.0915 29.487 65.9693 29.3676C65.8472 29.2482 65.7635 29.095 65.729 28.9277C65.6945 28.7604 65.7108 28.5866 65.7758 28.4286C65.8408 28.2706 65.9515 28.1357 66.0937 28.0411C66.236 27.9465 66.4032 27.8965 66.5741 27.8977C66.6849 27.8952 66.795 27.9149 66.8981 27.9556C67.0011 27.9963 67.0951 28.0571 67.1743 28.1346C67.2536 28.212 67.3165 28.3045 67.3596 28.4066C67.4026 28.5087 67.4249 28.6184 67.425 28.7292ZM67.2375 35.41H65.9015V30.5105H67.2375V35.41Z" fill="#9CA0AC"/>
<path d="M69.8014 35.4105H68.4654V27.9868H69.8014V35.4105Z" fill="#9CA0AC"/>
<path d="M72.3673 35.4105H71.0314V27.9868H72.3673V35.4105Z" fill="#9CA0AC"/>
<path d="M77.0182 31.1351L76.3446 31.9565C76.0512 31.667 75.6582 31.5008 75.2461 31.4918C74.9292 31.4918 74.7223 31.6008 74.7223 31.8383C74.7223 32.037 74.8803 32.1358 75.2318 32.2734L75.7067 32.4721C76.5882 32.8288 77.0834 33.2038 77.0834 33.9671C77.0834 34.9769 76.2417 35.5313 75.1727 35.5313C74.784 35.5417 74.3981 35.4613 74.0459 35.2964C73.6937 35.1315 73.3848 34.8868 73.1438 34.5815L73.8174 33.7663C73.9891 33.9651 74.1998 34.1266 74.4364 34.2407C74.6731 34.3548 74.9306 34.4191 75.1931 34.4297C75.5304 34.4297 75.8168 34.3013 75.8168 34.0221C75.8168 33.7938 75.6129 33.7052 75.3072 33.5768L74.7824 33.3587C73.9509 33.0224 73.4465 32.6362 73.4465 31.8638C73.4465 30.9242 74.2077 30.3892 75.2471 30.3892C75.5788 30.3772 75.9092 30.4377 76.2151 30.5665C76.521 30.6954 76.795 30.8894 77.0182 31.1351Z" fill="#9CA0AC"/>
<path d="M78.3695 30.0739H77.9731V31.0737H77.7336V30.0739H77.3372V29.8538H78.3684L78.3695 30.0739ZM79.7492 31.0737H79.5077V30.401L79.1959 30.8086H79.1154L78.8097 30.401V31.0746H78.5651V29.8354H78.6456L79.1623 30.5009L79.6718 29.8354H79.7503L79.7492 31.0737Z" fill="#9CA0AC"/>
</g>
<defs>
<clipPath id="clip0_3227_145">
<rect width="120" height="38" fill="white" transform="translate(0.569855)"/>
</clipPath>
</defs>
</svg>
