<svg width="40" height="41" viewBox="0 0 40 41" fill="none" xmlns="http://www.w3.org/2000/svg">
<rect y="0.704102" width="40" height="40" rx="6.66667" fill="white"/>
<path d="M19.6589 12.2083V13.3251C19.6589 14.2862 19.479 14.442 18.8585 14.7798L13.077 17.7149V17.8448L18.8322 20.7281C19.479 21.0656 19.6589 21.1957 19.6589 22.1828V23.4294C19.6589 24.2085 19.4002 24.4684 18.7291 24.1049L10.0307 19.3252C9.51516 19.0396 9.33331 18.8317 9.33331 18.2346V17.4033C9.33331 16.8058 9.51516 16.572 10.0307 16.2864L18.7291 11.5328C19.4002 11.1693 19.6589 11.4289 19.6589 12.2083Z" fill="#111827"/>
<path d="M20.5775 16.3158L29.2497 21.0692C29.7915 21.3549 29.9733 21.5627 29.9733 22.16V22.9913C29.9733 23.6147 29.7915 23.8224 29.2497 24.1081L20.5775 28.8616C19.8802 29.2253 19.6477 28.9656 19.6477 28.1863V27.0694C19.6477 26.1084 19.8277 25.9524 20.4482 25.6408L26.2296 22.7056V22.5498L20.4744 19.6665C19.8277 19.3549 19.6477 19.1989 19.6477 18.2118V16.965C19.6477 16.1856 19.8802 15.9262 20.5775 16.3158Z" fill="#111827"/>
</svg>
