<svg width="51" height="52" viewBox="0 0 51 52" fill="none" xmlns="http://www.w3.org/2000/svg">
<rect y="0.675781" width="50.5" height="50.5" rx="3.75" fill="#0066FF"/>
<g clip-path="url(#clip0_3_938)">
<path d="M23.452 38.6282L20.7835 37.7482C20.5035 37.6587 20.346 37.3256 20.4248 37.0074L26.3962 13.6292C26.4749 13.311 26.768 13.132 27.048 13.2215L29.7165 14.1015C29.9965 14.191 30.154 14.5242 30.0752 14.8424L24.1038 38.2205C24.0207 38.5387 23.732 38.7227 23.452 38.6282ZM18.4649 33.0497L20.3679 30.7427C20.5691 30.4991 20.556 30.1113 20.3329 29.8875L16.3694 25.9249L20.3329 21.9622C20.556 21.7385 20.5735 21.3507 20.3679 21.107L18.4649 18.8C18.268 18.5614 17.9356 18.5465 17.7212 18.7752L11.4173 25.4873C11.1942 25.721 11.1942 26.1237 11.4173 26.3574L17.7212 33.0746C17.9356 33.3033 18.268 33.2933 18.4649 33.0497ZM32.7788 33.0795L39.0827 26.3624C39.3058 26.1287 39.3058 25.726 39.0827 25.4923L32.7788 18.7702C32.5688 18.5465 32.2363 18.5564 32.0351 18.7951L30.1321 21.1021C29.9309 21.3457 29.944 21.7335 30.1671 21.9572L34.1306 25.9249L30.1671 29.8875C29.944 30.1113 29.9265 30.4991 30.1321 30.7427L32.0351 33.0497C32.232 33.2933 32.5644 33.3033 32.7788 33.0795Z" fill="white"/>
</g>
<defs>
<clipPath id="clip0_3_938">
<rect width="28" height="28" fill="white" transform="translate(11.25 11.9258)"/>
</clipPath>
</defs>
</svg>
