<svg width="51" height="51" viewBox="0 0 51 51" fill="none" xmlns="http://www.w3.org/2000/svg">
<rect y="0.175781" width="50.5" height="50.5" rx="3.75" fill="#0066FF"/>
<path d="M25.2531 18.2469C21.2803 18.2469 18.0759 21.4521 18.0759 25.4258C18.0759 29.3995 21.2803 32.6046 25.2531 32.6046C29.2259 32.6046 32.4304 29.3995 32.4304 25.4258C32.4304 21.4521 29.2259 18.2469 25.2531 18.2469ZM25.2531 30.093C22.6858 30.093 20.587 27.9999 20.587 25.4258C20.587 22.8516 22.6796 20.7586 25.2531 20.7586C27.8267 20.7586 29.9193 22.8516 29.9193 25.4258C29.9193 27.9999 27.8204 30.093 25.2531 30.093ZM34.398 17.9533C34.398 18.8842 33.6484 19.6277 32.724 19.6277C31.7932 19.6277 31.0499 18.878 31.0499 17.9533C31.0499 17.0286 31.7995 16.2788 32.724 16.2788C33.6484 16.2788 34.398 17.0286 34.398 17.9533ZM39.1516 19.6527C39.0454 17.4097 38.5332 15.4229 36.8904 13.7859C35.2538 12.149 33.2674 11.6366 31.0249 11.5242C28.7137 11.393 21.7863 11.393 19.4751 11.5242C17.2388 11.6304 15.2525 12.1427 13.6096 13.7797C11.9668 15.4166 11.4608 17.4035 11.3484 19.6465C11.2172 21.9582 11.2172 28.8871 11.3484 31.1988C11.4546 33.4418 11.9668 35.4287 13.6096 37.0656C15.2525 38.7026 17.2326 39.2149 19.4751 39.3274C21.7863 39.4586 28.7137 39.4586 31.0249 39.3274C33.2674 39.2212 35.2538 38.7088 36.8904 37.0656C38.527 35.4287 39.0392 33.4418 39.1516 31.1988C39.2828 28.8871 39.2828 21.9644 39.1516 19.6527ZM36.1658 33.6793C35.6786 34.9039 34.7353 35.8473 33.5048 36.3409C31.662 37.0719 27.2895 36.9032 25.2531 36.9032C23.2168 36.9032 18.838 37.0656 17.0015 36.3409C15.7772 35.8535 14.8339 34.9101 14.3405 33.6793C13.6096 31.8361 13.7783 27.4626 13.7783 25.4258C13.7783 23.389 13.6159 19.0092 14.3405 17.1723C14.8277 15.9477 15.7709 15.0043 17.0015 14.5107C18.8442 13.7797 23.2168 13.9484 25.2531 13.9484C27.2895 13.9484 31.6683 13.7859 33.5048 14.5107C34.7291 14.998 35.6723 15.9415 36.1658 17.1723C36.8966 19.0154 36.728 23.389 36.728 25.4258C36.728 27.4626 36.8966 31.8424 36.1658 33.6793Z" fill="white"/>
</svg>
