<svg width="49" height="49" viewBox="0 0 49 49" fill="none" xmlns="http://www.w3.org/2000/svg">
<rect y="0.175781" width="48.5" height="48.5" rx="3.75" fill="#0066FF"/>
<g clip-path="url(#clip0_3_883)">
<path d="M30.3167 11.4258H18.1833C16.7479 11.4258 15.5833 12.5176 15.5833 13.8633V34.9883C15.5833 36.334 16.7479 37.4258 18.1833 37.4258H30.3167C31.7521 37.4258 32.9167 36.334 32.9167 34.9883V13.8633C32.9167 12.5176 31.7521 11.4258 30.3167 11.4258ZM24.25 35.8008C23.2913 35.8008 22.5167 35.0746 22.5167 34.1758C22.5167 33.277 23.2913 32.5508 24.25 32.5508C25.2088 32.5508 25.9833 33.277 25.9833 34.1758C25.9833 35.0746 25.2088 35.8008 24.25 35.8008ZM30.3167 30.3164C30.3167 30.6516 30.0242 30.9258 29.6667 30.9258H18.8333C18.4758 30.9258 18.1833 30.6516 18.1833 30.3164V14.4727C18.1833 14.1375 18.4758 13.8633 18.8333 13.8633H29.6667C30.0242 13.8633 30.3167 14.1375 30.3167 14.4727V30.3164Z" fill="white"/>
</g>
<defs>
<clipPath id="clip0_3_883">
<rect width="26" height="26" fill="white" transform="translate(11.25 11.4258)"/>
</clipPath>
</defs>
</svg>
