<svg width="51" height="51" viewBox="0 0 51 51" fill="none" xmlns="http://www.w3.org/2000/svg">
<rect y="0.175781" width="50.5" height="50.5" rx="3.75" fill="#0066FF"/>
<g clip-path="url(#clip0_3_901)">
<path d="M27.4375 11.4258H37.9375C38.6624 11.4258 39.25 12.0973 39.25 12.9258V22.9258C39.25 23.7542 38.6624 24.4258 37.9375 24.4258H27.4375C26.7126 24.4258 26.125 23.7542 26.125 22.9258V12.9258C26.125 12.0973 26.7126 11.4258 27.4375 11.4258ZM23.0625 11.4258H12.5625C11.8376 11.4258 11.25 12.0973 11.25 12.9258V22.9258C11.25 23.7542 11.8376 24.4258 12.5625 24.4258H23.0625C23.7874 24.4258 24.375 23.7542 24.375 22.9258V12.9258C24.375 12.0973 23.7874 11.4258 23.0625 11.4258ZM11.25 27.9258V37.9258C11.25 38.7542 11.8376 39.4258 12.5625 39.4258H23.0625C23.7874 39.4258 24.375 38.7542 24.375 37.9258V27.9258C24.375 27.0973 23.7874 26.4258 23.0625 26.4258H12.5625C11.8376 26.4258 11.25 27.0973 11.25 27.9258ZM27.4375 39.4258H37.9375C38.6624 39.4258 39.25 38.7542 39.25 37.9258V27.9258C39.25 27.0973 38.6624 26.4258 37.9375 26.4258H27.4375C26.7126 26.4258 26.125 27.0973 26.125 27.9258V37.9258C26.125 38.7542 26.7126 39.4258 27.4375 39.4258Z" fill="white"/>
</g>
<defs>
<clipPath id="clip0_3_901">
<rect width="28" height="28" fill="white" transform="translate(11.25 11.4258)"/>
</clipPath>
</defs>
</svg>
