<svg width="51" height="52" viewBox="0 0 51 52" fill="none" xmlns="http://www.w3.org/2000/svg">
<rect y="0.675781" width="50.5" height="50.5" rx="3.75" fill="#0066FF"/>
<g clip-path="url(#clip0_3_929)">
<path d="M38.375 32.9258H14.75V16.3008C14.75 15.8173 14.3584 15.4258 13.875 15.4258H12.125C11.6416 15.4258 11.25 15.8173 11.25 16.3008V34.6758C11.25 35.6421 12.0337 36.4258 13 36.4258H38.375C38.8584 36.4258 39.25 36.0342 39.25 35.5508V33.8008C39.25 33.3173 38.8584 32.9258 38.375 32.9258ZM36.625 17.1758H30.1686C28.9994 17.1758 28.4137 18.5895 29.2405 19.4163L31.0124 21.1882L27 25.2012L22.9876 21.1888C22.304 20.5052 21.196 20.5052 20.513 21.1888L16.7565 24.9452C16.4147 25.287 16.4147 25.841 16.7565 26.1828L17.9935 27.4198C18.3353 27.7616 18.8893 27.7616 19.2311 27.4198L21.75 24.9004L25.7624 28.9128C26.446 29.5964 27.554 29.5964 28.237 28.9128L33.487 23.6628L35.2589 25.4347C36.0858 26.2616 37.4995 25.6759 37.4995 24.5066V18.0508C37.5 17.5673 37.1084 17.1758 36.625 17.1758Z" fill="white"/>
</g>
<defs>
<clipPath id="clip0_3_929">
<rect width="28" height="28" fill="white" transform="translate(11.25 11.9258)"/>
</clipPath>
</defs>
</svg>
