<svg width="51" height="52" viewBox="0 0 51 52" fill="none" xmlns="http://www.w3.org/2000/svg">
<rect y="0.675781" width="50.5" height="50.5" rx="3.75" fill="#0066FF"/>
<g clip-path="url(#clip0_3_911)">
<path d="M25.25 11.9258C17.5178 11.9258 11.25 18.1936 11.25 25.9258C11.25 33.658 17.5178 39.9258 25.25 39.9258C32.9822 39.9258 39.25 33.658 39.25 25.9258C39.25 18.1936 32.9822 11.9258 25.25 11.9258ZM29.8954 32.1129C29.6752 32.3319 29.4444 32.5617 29.2569 32.7497C29.0881 32.919 28.969 33.1279 28.9086 33.3542C28.8234 33.6738 28.7545 33.9967 28.6394 34.3066L27.6577 36.9513C26.8809 37.1207 26.077 37.2161 25.25 37.2161V35.6705C25.3454 34.958 24.8187 33.6235 23.9725 32.7773C23.6338 32.4386 23.4435 31.9791 23.4435 31.4998V29.6928C23.4435 29.0357 23.0896 28.4317 22.5144 28.1138C21.7031 27.6651 20.5493 27.0379 19.759 26.6399C19.1109 26.3136 18.5114 25.8981 17.9723 25.4121L17.9271 25.3714C17.5416 25.0234 17.1993 24.6303 16.9076 24.2006C16.3781 23.4233 15.5155 22.1447 14.9549 21.3137C16.1105 18.7451 18.193 16.6824 20.7807 15.5618L22.1361 16.2398C22.7368 16.5401 23.4435 16.1038 23.4435 15.432V14.7941C23.8946 14.7213 24.3535 14.675 24.8204 14.6575L26.418 16.2551C26.7708 16.6079 26.7708 17.1797 26.418 17.5326L26.1532 17.7967L25.5695 18.3805C25.3934 18.5566 25.3934 18.8428 25.5695 19.0189L25.8343 19.2837C26.0104 19.4598 26.0104 19.746 25.8343 19.9222L25.3827 20.3738C25.2979 20.4584 25.1829 20.5059 25.0631 20.5059H24.5556C24.4382 20.5059 24.3253 20.5516 24.2406 20.634L23.6806 21.1788C23.612 21.2456 23.5664 21.3325 23.5503 21.427C23.5343 21.5215 23.5487 21.6186 23.5915 21.7043L24.4715 23.4651C24.6217 23.7654 24.4032 24.1188 24.0679 24.1188H23.7495C23.6406 24.1188 23.5356 24.0792 23.4537 24.0081L22.9298 23.5531C22.8113 23.4503 22.668 23.3801 22.5141 23.3494C22.3602 23.3187 22.2009 23.3286 22.052 23.3781L20.2924 23.9647C20.1581 24.0094 20.0412 24.0954 19.9585 24.2103C19.8757 24.3252 19.8312 24.4632 19.8312 24.6048C19.8312 24.8605 19.9757 25.0937 20.2044 25.2083L20.8298 25.521C21.361 25.7869 21.947 25.9252 22.5409 25.9252C23.1348 25.9252 23.8161 27.4658 24.3473 27.7317H28.1155C28.5948 27.7317 29.0537 27.9219 29.393 28.2606L30.1658 29.0334C30.4887 29.3564 30.67 29.7944 30.6699 30.2511C30.6698 30.5971 30.6013 30.9398 30.4684 31.2593C30.3355 31.5788 30.1408 31.8689 29.8954 32.1129ZM34.7903 26.956C34.4635 26.8742 34.1784 26.6738 33.9915 26.3932L32.9765 24.8707C32.828 24.6483 32.7488 24.3868 32.7488 24.1193C32.7488 23.8519 32.828 23.5904 32.9765 23.368L34.0824 21.7094C34.2134 21.5135 34.3929 21.3543 34.604 21.2493L35.3368 20.883C36.1 22.4026 36.5403 24.112 36.5403 25.9258C36.5403 26.4152 36.4985 26.8945 36.4376 27.3676L34.7903 26.956Z" fill="white"/>
</g>
<defs>
<clipPath id="clip0_3_911">
<rect width="28" height="28" fill="white" transform="translate(11.25 11.9258)"/>
</clipPath>
</defs>
</svg>
