<svg width="50" height="51" viewBox="0 0 50 51" fill="none" xmlns="http://www.w3.org/2000/svg">
<rect y="0.175781" width="50" height="50" rx="3.75" fill="#0066FF"/>
<g clip-path="url(#clip0_3_874)">
<path d="M31.1617 18.5844C29.4826 17.0121 27.3036 16.1503 24.9918 16.1523C20.8315 16.156 17.2398 19.0086 16.2482 22.9656C16.176 23.2536 15.9194 23.457 15.6224 23.457H12.5446C12.1419 23.457 11.8359 23.0914 11.9104 22.6956C13.0726 16.5242 18.4909 11.8555 25 11.8555C28.569 11.8555 31.8101 13.2593 34.2015 15.5446L36.1198 13.6263C36.9318 12.8143 38.3203 13.3894 38.3203 14.5378V21.7383C38.3203 22.4502 37.7432 23.0273 37.0312 23.0273H29.8308C28.6824 23.0273 28.1072 21.6389 28.9193 20.8268L31.1617 18.5844ZM12.9688 27.3242H20.1692C21.3176 27.3242 21.8928 28.7127 21.0807 29.5248L18.8383 31.7672C20.5174 33.3395 22.6966 34.2014 25.0084 34.1993C29.1666 34.1955 32.7597 31.3449 33.7518 27.3861C33.824 27.098 34.0806 26.8946 34.3776 26.8946H37.4555C37.8582 26.8946 38.1641 27.2602 38.0896 27.656C36.9274 33.8273 31.5091 38.4961 25 38.4961C21.431 38.4961 18.1899 37.0923 15.7985 34.807L13.8802 36.7252C13.0682 37.5373 11.6797 36.9622 11.6797 35.8137V28.6133C11.6797 27.9013 12.2568 27.3242 12.9688 27.3242Z" fill="white"/>
</g>
<defs>
<clipPath id="clip0_3_874">
<rect width="27.5" height="27.5" fill="white" transform="translate(11.25 11.4258)"/>
</clipPath>
</defs>
</svg>
