<svg width="154" height="40" viewBox="0 0 154 40" fill="none" xmlns="http://www.w3.org/2000/svg">
<path d="M55.4316 26.1758C53.9727 26.1758 52.792 25.7422 51.8896 24.875C50.9873 24.002 50.5361 22.8682 50.5361 21.4736V21.2275C50.5361 20.2549 50.7148 19.3965 51.0723 18.6523C51.4355 17.9082 51.9629 17.334 52.6543 16.9297C53.3457 16.5195 54.166 16.3145 55.1152 16.3145C56.4512 16.3145 57.5059 16.7305 58.2793 17.5625C59.0527 18.3887 59.4395 19.543 59.4395 21.0254V22.1768H53.5508C53.6562 22.71 53.8877 23.1289 54.2451 23.4336C54.6025 23.7383 55.0654 23.8906 55.6338 23.8906C56.5713 23.8906 57.3037 23.5625 57.8311 22.9062L59.1846 24.5059C58.8154 25.0156 58.291 25.4229 57.6113 25.7275C56.9375 26.0264 56.2109 26.1758 55.4316 26.1758ZM55.0977 18.5996C54.2305 18.5996 53.7148 19.1738 53.5508 20.3223H56.5391V20.0938C56.5508 19.6191 56.4307 19.2529 56.1787 18.9951C55.9268 18.7314 55.5664 18.5996 55.0977 18.5996ZM63.4385 16.4902L63.5352 17.6064C64.209 16.7451 65.1143 16.3145 66.251 16.3145C67.4521 16.3145 68.2637 16.792 68.6855 17.7471C69.3301 16.792 70.2617 16.3145 71.4805 16.3145C73.4082 16.3145 74.3984 17.4805 74.4512 19.8125V26H71.4805V19.9971C71.4805 19.5107 71.3984 19.1562 71.2344 18.9336C71.0703 18.7109 70.7715 18.5996 70.3379 18.5996C69.752 18.5996 69.3154 18.8604 69.0283 19.3818L69.0371 19.5049V26H66.0664V20.0146C66.0664 19.5166 65.9873 19.1562 65.8291 18.9336C65.6709 18.7109 65.3691 18.5996 64.9238 18.5996C64.3555 18.5996 63.9219 18.8604 63.623 19.3818V26H60.6611V16.4902H63.4385ZM84.9717 21.3242C84.9717 22.8828 84.6494 24.0811 84.0049 24.9189C83.3604 25.7568 82.4521 26.1758 81.2803 26.1758C80.3135 26.1758 79.5342 25.792 78.9424 25.0244L78.8193 26H76.165V12.5H79.127V17.2549C79.6777 16.6279 80.3896 16.3145 81.2627 16.3145C82.4463 16.3145 83.3604 16.7393 84.0049 17.5889C84.6494 18.4385 84.9717 19.6338 84.9717 21.1748V21.3242ZM82.001 21.1396C82.001 20.2256 81.8779 19.5752 81.6318 19.1885C81.3916 18.7959 81.0195 18.5996 80.5156 18.5996C79.8477 18.5996 79.3848 18.8545 79.127 19.3643V23.1436C79.3789 23.6475 79.8477 23.8994 80.5332 23.8994C81.2305 23.8994 81.6729 23.5596 81.8604 22.8799C81.9541 22.5459 82.001 21.9658 82.001 21.1396ZM90.8867 26.1758C89.4277 26.1758 88.2471 25.7422 87.3447 24.875C86.4424 24.002 85.9912 22.8682 85.9912 21.4736V21.2275C85.9912 20.2549 86.1699 19.3965 86.5273 18.6523C86.8906 17.9082 87.418 17.334 88.1094 16.9297C88.8008 16.5195 89.6211 16.3145 90.5703 16.3145C91.9062 16.3145 92.9609 16.7305 93.7344 17.5625C94.5078 18.3887 94.8945 19.543 94.8945 21.0254V22.1768H89.0059C89.1113 22.71 89.3428 23.1289 89.7002 23.4336C90.0576 23.7383 90.5205 23.8906 91.0889 23.8906C92.0264 23.8906 92.7588 23.5625 93.2861 22.9062L94.6396 24.5059C94.2705 25.0156 93.7461 25.4229 93.0664 25.7275C92.3926 26.0264 91.666 26.1758 90.8867 26.1758ZM90.5527 18.5996C89.6855 18.5996 89.1699 19.1738 89.0059 20.3223H91.9941V20.0938C92.0059 19.6191 91.8857 19.2529 91.6338 18.9951C91.3818 18.7314 91.0215 18.5996 90.5527 18.5996ZM95.7207 21.1748C95.7207 19.6689 96.0459 18.4824 96.6963 17.6152C97.3467 16.748 98.2549 16.3145 99.4209 16.3145C100.271 16.3145 100.985 16.6484 101.565 17.3164V12.5H104.536V26H101.873L101.724 24.9805C101.114 25.7773 100.341 26.1758 99.4033 26.1758C98.2725 26.1758 97.376 25.7422 96.7139 24.875C96.0518 24.0078 95.7207 22.7744 95.7207 21.1748ZM98.6826 21.3594C98.6826 23.0469 99.1748 23.8906 100.159 23.8906C100.815 23.8906 101.284 23.6152 101.565 23.0645V19.4434C101.296 18.8809 100.833 18.5996 100.177 18.5996C99.2627 18.5996 98.7676 19.3379 98.6914 20.8145L98.6826 21.3594ZM111.198 23.3281C111.198 23.0762 111.066 22.874 110.803 22.7217C110.539 22.5693 110.038 22.4111 109.3 22.2471C108.562 22.083 107.952 21.8691 107.472 21.6055C106.991 21.3359 106.625 21.0107 106.373 20.6299C106.121 20.249 105.995 19.8125 105.995 19.3203C105.995 18.4473 106.355 17.7295 107.076 17.167C107.797 16.5986 108.74 16.3145 109.906 16.3145C111.16 16.3145 112.168 16.5986 112.93 17.167C113.691 17.7354 114.072 18.4824 114.072 19.4082H111.102C111.102 18.6465 110.7 18.2656 109.897 18.2656C109.587 18.2656 109.326 18.3535 109.115 18.5293C108.904 18.6992 108.799 18.9131 108.799 19.1709C108.799 19.4346 108.928 19.6484 109.186 19.8125C109.443 19.9766 109.854 20.1113 110.416 20.2168C110.984 20.3223 111.482 20.4482 111.91 20.5947C113.34 21.0869 114.055 21.9688 114.055 23.2402C114.055 24.1074 113.668 24.8135 112.895 25.3584C112.127 25.9033 111.131 26.1758 109.906 26.1758C109.092 26.1758 108.365 26.0293 107.727 25.7363C107.088 25.4434 106.59 25.0449 106.232 24.541C105.875 24.0371 105.696 23.5068 105.696 22.9502H108.465C108.477 23.3896 108.623 23.7119 108.904 23.917C109.186 24.1162 109.546 24.2158 109.985 24.2158C110.39 24.2158 110.691 24.1338 110.891 23.9697C111.096 23.8057 111.198 23.5918 111.198 23.3281ZM115.074 21.1572C115.074 20.208 115.259 19.3643 115.628 18.626C115.997 17.8818 116.527 17.3105 117.219 16.9121C117.91 16.5137 118.722 16.3145 119.653 16.3145C121.077 16.3145 122.199 16.7568 123.02 17.6416C123.84 18.5205 124.25 19.7188 124.25 21.2363V21.3418C124.25 22.8242 123.837 24.002 123.011 24.875C122.19 25.7422 121.077 26.1758 119.671 26.1758C118.317 26.1758 117.23 25.7715 116.41 24.9629C115.59 24.1484 115.147 23.0469 115.083 21.6582L115.074 21.1572ZM118.036 21.3418C118.036 22.2207 118.174 22.8652 118.449 23.2754C118.725 23.6855 119.132 23.8906 119.671 23.8906C120.726 23.8906 121.265 23.0791 121.288 21.4561V21.1572C121.288 19.4521 120.743 18.5996 119.653 18.5996C118.663 18.5996 118.127 19.335 118.045 20.8057L118.036 21.3418ZM129.576 23.8906C129.992 23.8906 130.314 23.7793 130.543 23.5566C130.771 23.3281 130.883 23.0117 130.877 22.6074H133.654C133.654 23.6504 133.279 24.5059 132.529 25.1738C131.785 25.8418 130.824 26.1758 129.646 26.1758C128.264 26.1758 127.174 25.7422 126.377 24.875C125.58 24.0078 125.182 22.8066 125.182 21.2715V21.1484C125.182 20.1875 125.357 19.3408 125.709 18.6084C126.066 17.8701 126.579 17.3047 127.247 16.9121C127.915 16.5137 128.706 16.3145 129.62 16.3145C130.856 16.3145 131.838 16.6572 132.564 17.3428C133.291 18.0283 133.654 18.957 133.654 20.1289H130.877C130.877 19.6367 130.757 19.2588 130.517 18.9951C130.276 18.7314 129.954 18.5996 129.55 18.5996C128.782 18.5996 128.334 19.0889 128.205 20.0674C128.164 20.3779 128.144 20.8057 128.144 21.3506C128.144 22.3057 128.258 22.9678 128.486 23.3369C128.715 23.7061 129.078 23.8906 129.576 23.8906ZM138.031 26H135.061V16.4902H138.031V26ZM134.885 14.0381C134.885 13.6162 135.037 13.2705 135.342 13.001C135.646 12.7314 136.042 12.5967 136.528 12.5967C137.015 12.5967 137.41 12.7314 137.715 13.001C138.02 13.2705 138.172 13.6162 138.172 14.0381C138.172 14.46 138.02 14.8057 137.715 15.0752C137.41 15.3447 137.015 15.4795 136.528 15.4795C136.042 15.4795 135.646 15.3447 135.342 15.0752C135.037 14.8057 134.885 14.46 134.885 14.0381ZM145.221 26C145.115 25.8066 145.021 25.5225 144.939 25.1475C144.395 25.833 143.633 26.1758 142.654 26.1758C141.758 26.1758 140.996 25.9062 140.369 25.3672C139.742 24.8223 139.429 24.1396 139.429 23.3193C139.429 22.2881 139.81 21.5088 140.571 20.9814C141.333 20.4541 142.44 20.1904 143.894 20.1904H144.808V19.6895C144.808 18.8164 144.43 18.3799 143.674 18.3799C142.971 18.3799 142.619 18.7256 142.619 19.417H139.657C139.657 18.4971 140.047 17.75 140.826 17.1758C141.611 16.6016 142.61 16.3145 143.823 16.3145C145.036 16.3145 145.994 16.6104 146.697 17.2021C147.4 17.7939 147.761 18.6055 147.778 19.6367V23.8467C147.79 24.7197 147.925 25.3877 148.183 25.8506V26H145.221ZM143.366 24.0664C143.735 24.0664 144.04 23.9873 144.28 23.8291C144.526 23.6709 144.702 23.4922 144.808 23.293V21.7725H143.946C142.915 21.7725 142.399 22.2354 142.399 23.1611C142.399 23.4307 142.49 23.6504 142.672 23.8203C142.854 23.9844 143.085 24.0664 143.366 24.0664ZM152.551 26H149.58V12.5H152.551V26Z" fill="black"/>
<rect width="40" height="40" rx="6.66667" fill="black"/>
<path d="M19.6589 11.5042V12.621C19.6589 13.5821 19.4789 13.7379 18.8584 14.0757L13.077 17.0108V17.1407L18.8322 20.024C19.4789 20.3615 19.6589 20.4916 19.6589 21.4787V22.7253C19.6589 23.5044 19.4002 23.7643 18.7291 23.4008L10.0306 18.6211C9.5151 18.3355 9.33325 18.1276 9.33325 17.5305V16.6992C9.33325 16.1017 9.5151 15.8679 10.0306 15.5823L18.7291 10.8287C19.4002 10.4652 19.6589 10.7248 19.6589 11.5042Z" fill="white"/>
<path d="M20.5775 15.6117L29.2497 20.3651C29.7915 20.6508 29.9733 20.8586 29.9733 21.4559V22.2872C29.9733 22.9106 29.7915 23.1183 29.2497 23.404L20.5775 28.1575C19.8802 28.5212 19.6477 28.2615 19.6477 27.4822V26.3653C19.6477 25.4043 19.8277 25.2483 20.4482 24.9367L26.2296 22.0015V21.8457L20.4744 18.9624C19.8277 18.6508 19.6477 18.4948 19.6477 17.5077V16.2609C19.6477 15.4815 19.8802 15.2221 20.5775 15.6117Z" fill="white"/>
</svg>
