<svg width="18" height="19" viewBox="0 0 18 19" fill="none" xmlns="http://www.w3.org/2000/svg">
<rect y="0.748779" width="18" height="18" rx="9" fill="#0066FF"/>
<path d="M9.00305 5.03758V5.64632C9.00305 6.17014 8.90496 6.25506 8.56674 6.43921L5.41553 8.03897V8.10979L8.55244 9.68135C8.90496 9.86529 9.00305 9.93621 9.00305 10.4742V11.1537C9.00305 11.5784 8.86204 11.72 8.49624 11.5219L3.75511 8.91667C3.47412 8.76104 3.375 8.64771 3.375 8.32224V7.86914C3.375 7.54346 3.47412 7.41603 3.75511 7.2604L8.49624 4.6694C8.86204 4.47125 9.00305 4.61279 9.00305 5.03758Z" fill="white"/>
<path d="M9.50379 7.27676L14.2306 9.86765C14.5259 10.0234 14.625 10.1366 14.625 10.4622V10.9153C14.625 11.2551 14.5259 11.3683 14.2306 11.524L9.50379 14.1149C9.12368 14.3132 8.99698 14.1716 8.99698 13.7468V13.1381C8.99698 12.6143 9.09507 12.5293 9.43329 12.3594L12.5845 10.7596V10.6746L9.44759 9.10308C9.09507 8.93324 8.99698 8.84822 8.99698 8.31019V7.63064C8.99698 7.20584 9.12368 7.06441 9.50379 7.27676Z" fill="white"/>
</svg>
