<svg width="121" height="21" viewBox="0 0 121 21" fill="none" xmlns="http://www.w3.org/2000/svg">
<g clip-path="url(#clip0_3_1003)">
<path d="M113.005 7.49268H100.648L106.829 12.3371L110.648 15.3311L116.829 20.1756L114.468 12.3371L120.648 7.49268H113.005Z" fill="#FFD600"/>
<path fill-rule="evenodd" clip-rule="evenodd" d="M108.813 6.78366L110.82 0.175781L112.827 6.78366H108.813ZM106.799 13.4179L110.105 16.01L104.746 20.1758L106.799 13.4179Z" fill="#FFD600"/>
</g>
<g clip-path="url(#clip1_3_1003)">
<path d="M88.0053 7.49268H75.6484L81.8288 12.3371L85.6484 15.3311L91.8288 20.1756L89.4681 12.3371L95.6484 7.49268H88.0053Z" fill="#FFD600"/>
<path fill-rule="evenodd" clip-rule="evenodd" d="M83.8134 6.78366L85.8203 0.175781L87.8271 6.78366H83.8134ZM81.7985 13.4179L85.1054 16.01L79.7461 20.1758L81.7985 13.4179Z" fill="#FFD600"/>
</g>
<g clip-path="url(#clip2_3_1003)">
<path d="M63.0053 7.49268H50.6484L56.8288 12.3371L60.6484 15.3311L66.8288 20.1756L64.4681 12.3371L70.6484 7.49268H63.0053Z" fill="#FFD600"/>
<path fill-rule="evenodd" clip-rule="evenodd" d="M58.8134 6.78366L60.8203 0.175781L62.8271 6.78366H58.8134ZM56.7985 13.4179L60.1054 16.01L54.7461 20.1758L56.7985 13.4179Z" fill="#FFD600"/>
</g>
<g clip-path="url(#clip3_3_1003)">
<path d="M38.0053 7.49268H25.6484L31.8288 12.3371L35.6484 15.3311L41.8288 20.1756L39.4681 12.3371L45.6484 7.49268H38.0053Z" fill="#FFD600"/>
<path fill-rule="evenodd" clip-rule="evenodd" d="M33.8134 6.78366L35.8203 0.175781L37.8271 6.78366H33.8134ZM31.7985 13.4179L35.1054 16.01L29.7461 20.1758L31.7985 13.4179Z" fill="#FFD600"/>
</g>
<g clip-path="url(#clip4_3_1003)">
<path d="M13.0053 7.49268H0.648438L6.82878 12.3371L10.6484 15.3311L16.8288 20.1756L14.4681 12.3371L20.6484 7.49268H13.0053Z" fill="#FFD600"/>
<path fill-rule="evenodd" clip-rule="evenodd" d="M8.81339 6.78366L10.8203 0.175781L12.8271 6.78366H8.81339ZM6.79851 13.4179L10.1054 16.01L4.74609 20.1758L6.79851 13.4179Z" fill="#FFD600"/>
</g>
<defs>
<clipPath id="clip0_3_1003">
<rect width="20" height="20" fill="white" transform="translate(100.648 0.175781)"/>
</clipPath>
<clipPath id="clip1_3_1003">
<rect width="20" height="20" fill="white" transform="translate(75.6484 0.175781)"/>
</clipPath>
<clipPath id="clip2_3_1003">
<rect width="20" height="20" fill="white" transform="translate(50.6484 0.175781)"/>
</clipPath>
<clipPath id="clip3_3_1003">
<rect width="20" height="20" fill="white" transform="translate(25.6484 0.175781)"/>
</clipPath>
<clipPath id="clip4_3_1003">
<rect width="20" height="20" fill="white" transform="translate(0.648438 0.175781)"/>
</clipPath>
</defs>
</svg>
