<svg width="25" height="24" viewBox="0 0 25 24" fill="none" xmlns="http://www.w3.org/2000/svg">
<circle cx="12.6548" cy="12.0249" r="11.8518" fill="#0066FF"/>
<path d="M12.656 8.18844V8.78831C12.656 9.30449 12.5595 9.38817 12.227 9.56963L9.1285 11.1461V11.2159L12.2129 12.7645C12.5595 12.9458 12.656 13.0157 12.656 13.5458V14.2154C12.656 14.6339 12.5173 14.7735 12.1576 14.5782L7.49588 12.011C7.21959 11.8576 7.12213 11.7459 7.12213 11.4252V10.9787C7.12213 10.6578 7.21959 10.5322 7.49588 10.3789L12.1576 7.82563C12.5173 7.63037 12.656 7.76984 12.656 8.18844Z" fill="white"/>
<path d="M13.1511 10.3952L17.7988 12.9484C18.0892 13.1018 18.1866 13.2134 18.1866 13.5342V13.9807C18.1866 14.3156 18.0892 14.4271 17.7988 14.5806L13.1511 17.1337C12.7774 17.3291 12.6528 17.1896 12.6528 16.771V16.1711C12.6528 15.655 12.7492 15.5712 13.0818 15.4038L16.1802 13.8273V13.7436L13.0958 12.1949C12.7492 12.0276 12.6528 11.9438 12.6528 11.4136V10.744C12.6528 10.3254 12.7774 10.186 13.1511 10.3952Z" fill="white"/>
</svg>
