<svg width="122" height="16" viewBox="0 0 122 16" fill="none" xmlns="http://www.w3.org/2000/svg">
<g clip-path="url(#clip0_3227_160)">
<path d="M9.42816 1.98868L9.77968 1.52785C9.84029 1.45509 9.88878 1.3702 9.96151 1.29744C9.88878 1.13979 9.81605 0.957882 9.69483 0.751722C9.4524 0.691086 9.27057 0.666832 9.07663 0.642578C9.02814 0.727467 8.95541 0.80023 8.90692 0.872992L8.55539 1.33382L8.20387 1.79465L8.04628 2.00081C8.42206 2.04931 8.78571 2.18271 9.12511 2.401L9.42816 1.98868ZM12.798 8.57368C12.2646 7.42161 11.1009 6.46357 10.507 6.24528C10.4221 3.80774 8.97965 2.89821 7.58566 2.89821H7.29474H7.00382C5.60983 2.89821 4.17947 3.80774 4.08249 6.25741C3.50065 6.47569 2.33697 7.51862 1.7915 8.67069C1.16117 10.0168 1.37936 12.8545 1.40361 13.1334L1.45209 13.8974H3.36732C4.77343 13.8974 5.20981 12.4907 5.34315 11.472C5.76741 12.3209 6.44622 13.6185 7.05231 14.9525L7.29474 15.4497L7.53717 14.8918C8.14326 13.57 8.82207 12.3452 9.24633 11.4841C9.37967 12.5028 9.81605 13.8974 11.2221 13.8974H13.1374L13.1859 13.097C13.2101 12.806 13.4283 9.93191 12.798 8.57368ZM4.27644 10.1017C4.27644 11.6418 4.00976 12.5149 3.37944 12.5149H2.54304C2.50668 11.5569 2.5188 10.0289 2.8582 9.31343C3.11276 8.76771 3.51278 8.1371 3.85218 7.80967L4.13098 9.37406L4.27644 10.1017ZM7.00382 4.13517H7.29474H7.58566C8.38569 4.13517 9.19784 4.54749 9.36755 6.06337H7.30686H5.22193C5.40376 4.54749 6.20379 4.13517 7.00382 4.13517ZM7.29474 12.7332C7.02806 12.0905 6.66441 11.5448 6.40986 10.9991H8.19174C7.92507 11.5569 7.56142 12.1026 7.29474 12.7332ZM9.37967 7.70053C9.33118 8.11285 9.23421 8.93749 9.14936 9.34981H5.45224C5.36739 8.93749 5.27042 8.11285 5.22193 7.70053H9.37967ZM12.0585 12.5149H11.2343C10.6039 12.5149 10.3373 11.6418 10.3373 10.1017L10.4827 9.33768L10.7615 7.79755C11.1009 8.12498 11.5009 8.75558 11.7555 9.31343C12.0828 10.0411 12.0949 11.5569 12.0585 12.5149ZM5.17345 1.98868L5.47649 2.37675C5.81589 2.15846 6.17954 2.02506 6.55532 1.97655L6.39774 1.77039L6.03408 1.33382L5.68256 0.872992C5.62195 0.80023 5.56134 0.727467 5.51285 0.642578C5.33103 0.666832 5.13708 0.691086 4.89465 0.751722C4.77343 0.970009 4.7007 1.13979 4.62797 1.32169C4.7007 1.39446 4.74919 1.46722 4.8098 1.5521L5.17345 1.98868Z" fill="#9CA0AC"/>
<path d="M19.174 3.85596H21.3437V12.1873H19.174V3.85596Z" fill="#9CA0AC"/>
<path d="M28.1198 8.96171C27.5016 8.41599 26.9197 7.71262 26.9197 7.71262C26.9197 7.71262 27.0773 8.7798 27.0773 9.47104V12.1875H25.0772V3.74707H25.2469L29.0895 7.06988C29.7562 7.66411 30.2895 8.3311 30.2895 8.3311C30.2895 8.3311 30.1562 7.25179 30.1562 6.56055V3.85621H32.1563V12.3087H31.9866L28.1198 8.96171Z" fill="#9CA0AC"/>
<path d="M35.8655 3.85596H38.8596C41.3203 3.85596 43.1991 5.45673 43.1991 8.01554C43.1991 10.5501 41.3324 12.1751 38.8596 12.1751H35.8655V3.85596ZM38.7626 10.3076C40.3142 10.3076 40.993 9.43441 40.993 8.02767C40.993 6.64518 40.302 5.74778 38.7626 5.74778H38.0474V10.3076H38.7626Z" fill="#9CA0AC"/>
<path d="M46.6538 8.90082V3.85596H48.8236V8.86444C48.8236 9.88311 49.2721 10.3924 50.2418 10.3924C51.2116 10.3924 51.6601 9.89524 51.6601 8.86444V3.85596H53.8299V8.90082C53.8299 11.1565 52.3268 12.3328 50.254 12.3328C48.1205 12.3328 46.6538 11.1443 46.6538 8.90082Z" fill="#9CA0AC"/>
<path d="M56.7997 10.4045L58.4967 9.41009C58.8482 10.0165 59.3695 10.4894 60.2301 10.4894C60.8241 10.4894 61.2483 10.2711 61.2483 9.88305C61.2483 9.48286 60.9453 9.31308 60.121 8.97352L59.7695 8.82799C58.3997 8.27015 57.4664 7.60316 57.4664 6.11153C57.4664 4.65628 58.5815 3.69824 60.1937 3.69824C61.3938 3.69824 62.2181 4.04993 62.909 5.12924L61.2604 6.07515C60.9695 5.61432 60.6665 5.48092 60.2543 5.48092C59.818 5.48092 59.5392 5.69921 59.5392 6.07515C59.5392 6.52385 59.9028 6.6815 60.3998 6.88766L60.7513 7.03319C62.2787 7.65167 63.3939 8.28228 63.3939 9.8588C63.3939 11.4111 62.2181 12.3206 60.2543 12.3206C58.5694 12.3327 57.3451 11.5202 56.7997 10.4045Z" fill="#9CA0AC"/>
<path d="M68.3758 5.73565H66.0121V3.85596H72.9215V5.73565H70.5577V12.1873H68.3758V5.73565Z" fill="#9CA0AC"/>
<path d="M83.0673 12.1873H80.6309L79.4672 10.1742C79.3581 10.1863 79.249 10.1863 79.1278 10.1863H78.4732V12.1751H76.3034V3.85596H79.1278C81.3339 3.85596 82.9461 4.85038 82.9461 7.04538C82.9461 8.29446 82.3764 9.1191 81.4794 9.57993L83.0673 12.1873ZM79.0793 8.3551C80.2066 8.3551 80.7279 7.99129 80.7279 7.04538C80.7279 6.09946 80.2187 5.72353 79.0793 5.72353H78.4732V8.3551H79.0793Z" fill="#9CA0AC"/>
<path d="M86.4978 3.85596H88.6676V12.1873H86.4978V3.85596Z" fill="#9CA0AC"/>
<path d="M92.195 8.01556C92.195 5.45675 94.2314 3.71045 96.68 3.71045C99.1164 3.71045 101.165 5.46888 101.165 8.01556C101.165 10.538 99.1286 12.3207 96.68 12.3207C94.2314 12.3328 92.195 10.538 92.195 8.01556ZM98.9467 8.01556C98.9467 6.60882 98.0255 5.62653 96.68 5.62653C95.3345 5.62653 94.4132 6.62095 94.4132 8.01556C94.4132 9.44656 95.3345 10.4046 96.68 10.4046C98.0255 10.4046 98.9467 9.45868 98.9467 8.01556Z" fill="#9CA0AC"/>
<path d="M104.608 8.90082V3.85596H106.778V8.86444C106.778 9.88311 107.226 10.3924 108.196 10.3924C109.166 10.3924 109.614 9.89524 109.614 8.86444V3.85596H111.784V8.90082C111.784 11.1565 110.281 12.3328 108.208 12.3328C106.075 12.3328 104.608 11.1443 104.608 8.90082Z" fill="#9CA0AC"/>
<path d="M114.754 10.4045L116.451 9.41009C116.802 10.0165 117.323 10.4894 118.184 10.4894C118.778 10.4894 119.202 10.2711 119.202 9.88305C119.202 9.48286 118.899 9.31308 118.075 8.97352L117.723 8.82799C116.354 8.27015 115.42 7.60316 115.42 6.11153C115.42 4.65628 116.535 3.69824 118.148 3.69824C119.348 3.69824 120.172 4.04993 120.863 5.12924L119.214 6.07515C118.923 5.61432 118.62 5.48092 118.208 5.48092C117.772 5.48092 117.493 5.69921 117.493 6.07515C117.493 6.52385 117.857 6.6815 118.354 6.88766L118.705 7.03319C120.233 7.65167 121.348 8.28228 121.348 9.8588C121.348 11.4111 120.172 12.3206 118.208 12.3206C116.523 12.3327 115.299 11.5202 114.754 10.4045Z" fill="#9CA0AC"/>
</g>
<defs>
<clipPath id="clip0_3227_160">
<rect width="121" height="15" fill="white" transform="translate(0.569824 0.5)"/>
</clipPath>
</defs>
</svg>
