<svg width="18" height="18" viewBox="0 0 18 18" fill="none" xmlns="http://www.w3.org/2000/svg">
<g clip-path="url(#clip0_10_2563)">
<path d="M11.9612 0.5979L5.11714 0.5979C2.33566 0.5979 0.0727539 2.8608 0.0727539 5.64229L0.0727539 12.4864C0.0727539 15.2679 2.33566 17.5308 5.11714 17.5308L11.9612 17.5308C14.7427 17.5308 17.0056 15.2679 17.0056 12.4864L17.0056 5.64229C17.0056 2.8608 14.7427 0.5979 11.9612 0.5979ZM15.3022 12.4864C15.3022 14.3315 13.8064 15.8273 11.9612 15.8273H5.11714C3.27201 15.8273 1.7762 14.3315 1.7762 12.4864L1.7762 5.64229C1.7762 3.79712 3.27201 2.30135 5.11714 2.30135L11.9612 2.30135C13.8064 2.30135 15.3022 3.79712 15.3022 5.64229V12.4864Z" fill="white"/>
<path d="M8.54222 4.68433C6.12739 4.68433 4.16278 6.64894 4.16278 9.06374C4.16278 11.4785 6.12739 13.4432 8.54222 13.4432C10.957 13.4432 12.9217 11.4786 12.9217 9.06374C12.9217 6.64891 10.957 4.68433 8.54222 4.68433ZM8.54222 11.7398C7.0643 11.7398 5.86623 10.5417 5.86623 9.06377C5.86623 7.58584 7.06433 6.38777 8.54222 6.38777C10.0201 6.38777 11.2182 7.58584 11.2182 9.06377C11.2182 10.5417 10.0201 11.7398 8.54222 11.7398Z" fill="white"/>
<path d="M12.9257 5.76604C13.5053 5.76604 13.9751 5.29621 13.9751 4.71664C13.9751 4.13707 13.5053 3.66724 12.9257 3.66724C12.3462 3.66724 11.8763 4.13707 11.8763 4.71664C11.8763 5.29621 12.3462 5.76604 12.9257 5.76604Z" fill="white"/>
</g>
<defs>
<clipPath id="clip0_10_2563">
<rect width="16.9329" height="16.9329" fill="white" transform="translate(0.0731201 0.5979)"/>
</clipPath>
</defs>
</svg>
