<svg width="100" height="30" viewBox="0 0 100 30" fill="none" xmlns="http://www.w3.org/2000/svg">
<path d="M17.4628 27.3375H17.9628V26.8375V3.16417V2.66417H17.4628H2.94221H2.44221V3.16417V26.8375V27.3375H2.94221H17.4628ZM19.9156 29.322H0.5V0.677734H19.9156V29.322Z" fill="#9CA0AC" stroke="#9CA0AC"/>
<mask id="path-2-inside-1_2884_142" fill="white">
<path d="M32.5819 10.5131H32.5533C30.9246 7.86037 29.2804 5.51715 27.6221 3.15836H26.3568V13.4764H27.7533V6.07645H27.7674C29.4121 8.74479 31.0553 11.1036 32.7141 13.4764H33.9794V3.15836H32.5819V10.5131ZM42.6628 13.4764L39.4186 3.15836H37.9648L34.4442 13.4764H35.9568L36.8447 10.6609H39.9131L40.7136 13.4764H42.6628ZM37.295 9.39253C37.7025 8.03625 38.1101 6.78549 38.4734 5.19152H38.503C38.9106 6.78499 39.2739 8.03625 39.6523 9.39253H37.295ZM44.3061 13.4764H46.0518V4.54429H48.7287V3.15836H41.6302V4.54429H44.3066V13.4764H44.3061ZM51.0262 3.15836H49.2955V13.4764H51.0262V3.15836ZM56.4096 13.6523C59.0719 13.6523 60.7302 11.2503 60.7302 8.16941C60.7302 5.28047 58.8965 2.98047 56.4096 2.98047C53.9216 2.98047 52.088 5.28047 52.088 8.16941C52.088 11.2508 53.7463 13.6523 56.4096 13.6523ZM56.4096 4.45534C58.1407 4.45534 58.8674 6.26791 58.8674 8.16992C58.8674 10.1448 58.2282 12.179 56.4096 12.179C54.591 12.179 53.9513 10.1453 53.9513 8.16992C53.9513 6.26791 54.6784 4.45534 56.4096 4.45534ZM63.187 6.07645H63.203C64.8463 8.74479 66.4895 11.1036 68.1483 13.4764H69.4136V3.15836H68.0171V10.5131H67.988C66.3593 7.86037 64.7151 5.51715 63.0568 3.15836H61.7915V13.4764H63.187V6.07645ZM72.2779 10.6609H75.3483L76.1483 13.4764H78.097L74.8538 3.15836H73.399L69.8779 13.4764H71.3925L72.2779 10.6609ZM73.9091 5.19152H73.9377C74.3442 6.78499 74.7081 8.03625 75.0875 9.39253H72.7292C73.1377 8.03625 73.5437 6.78499 73.9091 5.19152ZM83.7844 12.09H80.3377V3.15836H78.6061V13.4764H83.7849V12.09H83.7844ZM31.1588 25.2775C30.7945 25.4694 30.4025 25.5287 29.9372 25.5287C28.4392 25.5287 26.9844 24.0835 26.9844 21.6373C26.9844 19.294 28.2498 17.8046 30.1121 17.8046C30.7814 17.8046 31.5086 18.0548 31.9739 18.3493L32.5407 17.1267C31.9593 16.6835 31.0136 16.3302 30.0679 16.3302C27.0136 16.3302 25.1221 18.792 25.1221 21.6071C25.1221 24.6438 27.0136 27.0026 30.0091 27.0026C30.9985 27.0026 31.9734 26.7388 32.905 26.3684V22.1076H31.1588V25.2775ZM36.2347 22.1086H39.0865V20.7237H36.2347V17.8935H39.1447V16.5081H34.49V26.8262H39.6684V25.4393H36.2347V22.1086ZM44.5272 16.3307C42.0392 16.3307 40.2071 18.6302 40.2071 21.5197C40.2071 24.6001 41.8648 27.0031 44.5272 27.0031C47.189 27.0031 48.8468 24.6001 48.8468 21.5197C48.8468 18.6302 47.0141 16.3307 44.5272 16.3307ZM44.5272 25.5287C42.7081 25.5287 42.0684 23.4945 42.0684 21.5192C42.0684 19.6172 42.7955 17.8041 44.5272 17.8041C46.2578 17.8041 46.9849 19.6167 46.9849 21.5192C46.9849 23.4945 46.3458 25.5287 44.5272 25.5287ZM55.4804 25.2775C55.1171 25.4694 54.7236 25.5287 54.2583 25.5287C52.7598 25.5287 51.305 24.0835 51.305 21.6373C51.305 19.294 52.5709 17.8046 54.4337 17.8046C55.1025 17.8046 55.8302 18.0548 56.294 18.3493L56.8618 17.1267C56.2804 16.6835 55.3342 16.3302 54.388 16.3302C51.3347 16.3302 49.4437 18.792 49.4437 21.6071C49.4437 24.6438 51.3347 27.0026 54.3317 27.0026C55.3196 27.0026 56.294 26.7388 57.2262 26.3684V22.1076H55.4804V25.2775ZM64.703 19.486C64.703 17.48 63.495 16.5081 61.5468 16.5081H58.8262V26.8262H60.5714V22.9347H61.3568L63.0005 26.8262H64.993L62.9432 22.5508C64.0618 21.9468 64.703 20.7237 64.703 19.486ZM61.299 21.6076C61.1236 21.6227 60.7156 21.6378 60.5709 21.6523V17.894H61.3432C62.3744 17.894 62.9558 18.4971 62.9558 19.5589C62.9558 20.9438 62.1282 21.5639 61.299 21.6076ZM68.5432 16.5081L65.0221 26.8262H66.5342L67.4221 24.0101H70.4915L71.2935 26.8262H73.2412L69.997 16.5081H68.5432ZM67.8744 22.7438C68.2814 21.3865 68.6885 20.1337 69.0523 18.5423H69.0819C69.4885 20.1337 69.8523 21.3865 70.2312 22.7438H67.8744ZM86.0136 20.4729H82.391V16.5081H80.6598V26.8262H82.391V21.8579H86.0136V26.8262H87.7583V16.5362H86.0136V20.4729ZM89.4307 26.8252H91.1613V16.5081H89.4307V26.8252ZM97.2714 25.5287C95.5839 25.5287 94.1578 24.0835 94.1578 21.6373C94.1578 19.294 95.4538 17.8046 97.2277 17.8046C97.897 17.8046 98.5955 18.1136 99.0176 18.379L99.5699 17.1272C98.9734 16.7141 98.1307 16.3307 97.2282 16.3307C94.188 16.3307 92.3111 18.7925 92.3111 21.6076C92.3111 24.6443 94.2025 27.0031 97.2 27.0031C98.0432 27.0031 98.9739 26.6639 99.4975 26.296L99.0181 25.0131C98.5669 25.3076 97.9407 25.5287 97.2714 25.5287ZM76.5136 16.5081H73.795V26.8262H75.5407V22.9347H76.3251C78.4066 22.9347 79.6709 21.2237 79.6709 19.486C79.6704 17.48 78.4643 16.5081 76.5136 16.5081ZM76.2669 21.6076C76.0925 21.6212 75.6714 21.6352 75.5402 21.6488V17.8935H76.3246C77.3437 17.8935 77.9257 18.4966 77.9257 19.5584C77.9252 20.9438 77.096 21.5639 76.2669 21.6076Z"/>
</mask>
<path d="M32.5819 10.5131H32.5533C30.9246 7.86037 29.2804 5.51715 27.6221 3.15836H26.3568V13.4764H27.7533V6.07645H27.7674C29.4121 8.74479 31.0553 11.1036 32.7141 13.4764H33.9794V3.15836H32.5819V10.5131ZM42.6628 13.4764L39.4186 3.15836H37.9648L34.4442 13.4764H35.9568L36.8447 10.6609H39.9131L40.7136 13.4764H42.6628ZM37.295 9.39253C37.7025 8.03625 38.1101 6.78549 38.4734 5.19152H38.503C38.9106 6.78499 39.2739 8.03625 39.6523 9.39253H37.295ZM44.3061 13.4764H46.0518V4.54429H48.7287V3.15836H41.6302V4.54429H44.3066V13.4764H44.3061ZM51.0262 3.15836H49.2955V13.4764H51.0262V3.15836ZM56.4096 13.6523C59.0719 13.6523 60.7302 11.2503 60.7302 8.16941C60.7302 5.28047 58.8965 2.98047 56.4096 2.98047C53.9216 2.98047 52.088 5.28047 52.088 8.16941C52.088 11.2508 53.7463 13.6523 56.4096 13.6523ZM56.4096 4.45534C58.1407 4.45534 58.8674 6.26791 58.8674 8.16992C58.8674 10.1448 58.2282 12.179 56.4096 12.179C54.591 12.179 53.9513 10.1453 53.9513 8.16992C53.9513 6.26791 54.6784 4.45534 56.4096 4.45534ZM63.187 6.07645H63.203C64.8463 8.74479 66.4895 11.1036 68.1483 13.4764H69.4136V3.15836H68.0171V10.5131H67.988C66.3593 7.86037 64.7151 5.51715 63.0568 3.15836H61.7915V13.4764H63.187V6.07645ZM72.2779 10.6609H75.3483L76.1483 13.4764H78.097L74.8538 3.15836H73.399L69.8779 13.4764H71.3925L72.2779 10.6609ZM73.9091 5.19152H73.9377C74.3442 6.78499 74.7081 8.03625 75.0875 9.39253H72.7292C73.1377 8.03625 73.5437 6.78499 73.9091 5.19152ZM83.7844 12.09H80.3377V3.15836H78.6061V13.4764H83.7849V12.09H83.7844ZM31.1588 25.2775C30.7945 25.4694 30.4025 25.5287 29.9372 25.5287C28.4392 25.5287 26.9844 24.0835 26.9844 21.6373C26.9844 19.294 28.2498 17.8046 30.1121 17.8046C30.7814 17.8046 31.5086 18.0548 31.9739 18.3493L32.5407 17.1267C31.9593 16.6835 31.0136 16.3302 30.0679 16.3302C27.0136 16.3302 25.1221 18.792 25.1221 21.6071C25.1221 24.6438 27.0136 27.0026 30.0091 27.0026C30.9985 27.0026 31.9734 26.7388 32.905 26.3684V22.1076H31.1588V25.2775ZM36.2347 22.1086H39.0865V20.7237H36.2347V17.8935H39.1447V16.5081H34.49V26.8262H39.6684V25.4393H36.2347V22.1086ZM44.5272 16.3307C42.0392 16.3307 40.2071 18.6302 40.2071 21.5197C40.2071 24.6001 41.8648 27.0031 44.5272 27.0031C47.189 27.0031 48.8468 24.6001 48.8468 21.5197C48.8468 18.6302 47.0141 16.3307 44.5272 16.3307ZM44.5272 25.5287C42.7081 25.5287 42.0684 23.4945 42.0684 21.5192C42.0684 19.6172 42.7955 17.8041 44.5272 17.8041C46.2578 17.8041 46.9849 19.6167 46.9849 21.5192C46.9849 23.4945 46.3458 25.5287 44.5272 25.5287ZM55.4804 25.2775C55.1171 25.4694 54.7236 25.5287 54.2583 25.5287C52.7598 25.5287 51.305 24.0835 51.305 21.6373C51.305 19.294 52.5709 17.8046 54.4337 17.8046C55.1025 17.8046 55.8302 18.0548 56.294 18.3493L56.8618 17.1267C56.2804 16.6835 55.3342 16.3302 54.388 16.3302C51.3347 16.3302 49.4437 18.792 49.4437 21.6071C49.4437 24.6438 51.3347 27.0026 54.3317 27.0026C55.3196 27.0026 56.294 26.7388 57.2262 26.3684V22.1076H55.4804V25.2775ZM64.703 19.486C64.703 17.48 63.495 16.5081 61.5468 16.5081H58.8262V26.8262H60.5714V22.9347H61.3568L63.0005 26.8262H64.993L62.9432 22.5508C64.0618 21.9468 64.703 20.7237 64.703 19.486ZM61.299 21.6076C61.1236 21.6227 60.7156 21.6378 60.5709 21.6523V17.894H61.3432C62.3744 17.894 62.9558 18.4971 62.9558 19.5589C62.9558 20.9438 62.1282 21.5639 61.299 21.6076ZM68.5432 16.5081L65.0221 26.8262H66.5342L67.4221 24.0101H70.4915L71.2935 26.8262H73.2412L69.997 16.5081H68.5432ZM67.8744 22.7438C68.2814 21.3865 68.6885 20.1337 69.0523 18.5423H69.0819C69.4885 20.1337 69.8523 21.3865 70.2312 22.7438H67.8744ZM86.0136 20.4729H82.391V16.5081H80.6598V26.8262H82.391V21.8579H86.0136V26.8262H87.7583V16.5362H86.0136V20.4729ZM89.4307 26.8252H91.1613V16.5081H89.4307V26.8252ZM97.2714 25.5287C95.5839 25.5287 94.1578 24.0835 94.1578 21.6373C94.1578 19.294 95.4538 17.8046 97.2277 17.8046C97.897 17.8046 98.5955 18.1136 99.0176 18.379L99.5699 17.1272C98.9734 16.7141 98.1307 16.3307 97.2282 16.3307C94.188 16.3307 92.3111 18.7925 92.3111 21.6076C92.3111 24.6443 94.2025 27.0031 97.2 27.0031C98.0432 27.0031 98.9739 26.6639 99.4975 26.296L99.0181 25.0131C98.5669 25.3076 97.9407 25.5287 97.2714 25.5287ZM76.5136 16.5081H73.795V26.8262H75.5407V22.9347H76.3251C78.4066 22.9347 79.6709 21.2237 79.6709 19.486C79.6704 17.48 78.4643 16.5081 76.5136 16.5081ZM76.2669 21.6076C76.0925 21.6212 75.6714 21.6352 75.5402 21.6488V17.8935H76.3246C77.3437 17.8935 77.9257 18.4966 77.9257 19.5584C77.9252 20.9438 77.096 21.5639 76.2669 21.6076Z" fill="#9CA0AC" stroke="#9CA0AC" stroke-width="2" mask="url(#path-2-inside-1_2884_142)"/>
</svg>
