<svg width="71" height="38" viewBox="0 0 71 38" fill="none" xmlns="http://www.w3.org/2000/svg">
<path d="M21.8754 0.809761H17.2188L10.1505 19.657H14.4944L17.6156 11.3028L17.7446 11.3305L17.2 19.657H21.9141L28.9824 0.809761H24.6384L21.4577 9.279L21.3288 9.25125L21.8754 0.809761Z" fill="#9CA0AC" stroke="#9CA0AC"/>
<mask id="path-2-inside-1_2884_173" fill="white">
<path d="M22.5425 19.7236L29.6609 0.743094H34.1472L27.0288 19.7236H22.5425Z"/>
</mask>
<path d="M22.5425 19.7236L29.6609 0.743094H34.1472L27.0288 19.7236H22.5425Z" fill="#9CA0AC"/>
<path d="M29.6609 0.743094L29.536 0.696274L29.5685 0.609761H29.6609V0.743094ZM34.1472 0.743094V0.609761H34.3396L34.272 0.789914L34.1472 0.743094ZM27.0288 19.7236L27.1536 19.7705L27.1212 19.857H27.0288V19.7236ZM22.4176 19.6768L29.536 0.696274L29.7857 0.789914L22.6673 19.7705L22.4176 19.6768ZM29.6609 0.609761H34.1472V0.876427H29.6609V0.609761ZM34.272 0.789914L27.1536 19.7705L26.9039 19.6768L34.0223 0.696274L34.272 0.789914ZM27.0288 19.857H22.5425V19.5903H27.0288V19.857Z" fill="#9CA0AC" mask="url(#path-2-inside-1_2884_173)"/>
<path d="M9.24359 13.6314C6.79962 18.7915 7.336 22.3748 9.31598 24.4644C11.3517 26.6128 14.8893 27.1542 18.1825 26.2298C18.1825 26.2298 18.1825 26.2298 18.1825 26.2298L18.1843 26.2293L18.1913 26.2274L18.2194 26.2198L18.3302 26.1898L18.7623 26.0727L20.4029 25.6281L26.26 24.0408C31.1084 22.7269 37.5752 20.9745 44.0493 19.2203C56.9984 15.7116 69.9744 12.1962 70.0896 12.1675C70.2289 12.1326 70.3333 12.1254 70.4039 12.1343C70.478 12.1437 70.4976 12.1676 70.5012 12.1761C70.5041 12.1828 70.5087 12.2085 70.4672 12.2582C70.4276 12.3055 70.3559 12.3613 70.2465 12.4161L70.246 12.4164L70.2449 12.417M9.24359 13.6314L18.2795 34.9082C22.5933 33.1826 70.2747 12.4766 70.2747 12.4766L70.2449 12.417M9.24359 13.6314C6.23377 17.217 3.3554 21.3305 1.80902 25.1102C0.202054 29.038 0.0441906 32.5747 2.62101 34.8002L2.57743 34.8506L2.62101 34.8002C5.13402 36.9705 7.9608 37.4143 10.7013 37.0995C13.3974 36.7898 16.0052 35.7464 18.1432 34.891C18.1805 34.876 18.2177 34.8611 18.2548 34.8463C20.4105 33.984 33.4079 28.3767 45.8683 22.9841C52.0981 20.288 58.193 17.6459 62.7306 15.6777C64.9993 14.6936 66.8787 13.8781 68.1909 13.3085C68.847 13.0237 69.3613 12.8005 69.7116 12.6484L70.1113 12.4749L70.2136 12.4304L70.2395 12.4192L70.2449 12.417" fill="#9CA0AC" stroke="#9CA0AC"/>
<path d="M40.0482 18.4817L39.9191 18.4602L39.6317 8.56735L39.6309 8.54043L39.649 8.52052L46.4321 1.07309L46.5438 1.14137L40.0482 18.4817ZM49.2536 19.6273L50.5163 16.1092H45.377H45.2809L45.3145 16.0192L47.0341 11.4178L47.0503 11.3745H47.0965H51.3641L52.6412 7.97056H48.4237H48.3279L48.3611 7.88076L49.84 3.88333L49.8561 3.8398H49.9026H54.4005L55.5552 0.809761H46.6622H46.6219H41.9944L37.3136 6.47971L37.1999 6.41352L39.3355 0.809761H34.9348L27.9236 19.657H32.2679L35.266 11.7626L35.395 11.7845L35.5998 19.6568L49.2536 19.6273Z" fill="#9CA0AC" stroke="#9CA0AC"/>
</svg>
