<svg width="17" height="17" viewBox="0 0 17 17" fill="none" xmlns="http://www.w3.org/2000/svg">
<g clip-path="url(#clip0_3_714)">
<path d="M15.9077 1.03706C15.8876 0.943544 15.8409 0.857818 15.7733 0.790184C15.7056 0.722551 15.6199 0.67589 15.5264 0.655811C14.5202 0.440186 13.733 0.440186 12.9486 0.440186C9.72359 0.440186 7.78922 2.16519 6.34578 4.44019H3.08953C2.81144 4.44042 2.53888 4.51796 2.30231 4.66414C2.06574 4.81032 1.87446 5.01939 1.74984 5.268L0.205467 8.3555C0.148433 8.46987 0.121574 8.59692 0.127438 8.7246C0.133302 8.85227 0.171695 8.97632 0.238973 9.08499C0.306251 9.19366 0.400182 9.28333 0.511851 9.34549C0.62352 9.40765 0.749223 9.44025 0.877029 9.44019H4.11984L3.41765 10.1424C3.23016 10.3299 3.12484 10.5842 3.12484 10.8494C3.12484 11.1146 3.23016 11.3689 3.41765 11.5564L5.00828 13.1474C5.10114 13.2403 5.21139 13.3139 5.33273 13.3642C5.45407 13.4145 5.58413 13.4403 5.71547 13.4403C5.84681 13.4403 5.97686 13.4145 6.0982 13.3642C6.21954 13.3139 6.32979 13.2403 6.42265 13.1474L7.12484 12.4452V15.6902C7.1248 15.8179 7.1574 15.9436 7.21955 16.0552C7.2817 16.1669 7.37134 16.2608 7.47996 16.328C7.58858 16.3953 7.71258 16.4337 7.84021 16.4396C7.96783 16.4455 8.09485 16.4187 8.20922 16.3617L11.2936 14.8183C11.5426 14.6939 11.752 14.5026 11.8983 14.2658C12.0446 14.0289 12.1219 13.756 12.1217 13.4777V10.2149C14.3902 8.768 16.1217 6.82737 16.1217 3.61831C16.1248 2.83081 16.1248 2.04331 15.9077 1.03706ZM12.1248 5.69019C11.8776 5.69019 11.6359 5.61687 11.4304 5.47952C11.2248 5.34217 11.0646 5.14695 10.97 4.91854C10.8754 4.69013 10.8506 4.4388 10.8989 4.19632C10.9471 3.95385 11.0661 3.73112 11.241 3.5563C11.4158 3.38149 11.6385 3.26244 11.881 3.2142C12.1235 3.16597 12.3748 3.19073 12.6032 3.28534C12.8316 3.37995 13.0268 3.54016 13.1642 3.74572C13.3015 3.95128 13.3748 4.19296 13.3748 4.44019C13.3748 4.77171 13.2431 5.08965 13.0087 5.32407C12.7743 5.55849 12.4564 5.69019 12.1248 5.69019Z" fill="#682EE6"/>
</g>
<defs>
<clipPath id="clip0_3_714">
<rect width="16" height="16" fill="white" transform="translate(0.124023 0.440186)"/>
</clipPath>
</defs>
</svg>
