<svg width="16" height="17" viewBox="0 0 16 17" fill="none" xmlns="http://www.w3.org/2000/svg">
<g clip-path="url(#clip0_3_244)">
<path d="M12.4437 5.44V4.44C12.4437 2.23438 10.5639 0.440002 8.25326 0.440002C5.9426 0.440002 4.06278 2.23438 4.06278 4.44V5.44H0.919922V13.94C0.919922 15.3207 2.0925 16.44 3.53897 16.44H12.9675C14.414 16.44 15.5866 15.3207 15.5866 13.94V5.44H12.4437ZM6.15802 4.44C6.15802 3.33719 7.09793 2.44 8.25326 2.44C9.40858 2.44 10.3485 3.33719 10.3485 4.44V5.44H6.15802V4.44ZM11.3961 8.19C10.9622 8.19 10.6104 7.85422 10.6104 7.44C10.6104 7.02578 10.9622 6.69 11.3961 6.69C11.8301 6.69 12.1818 7.02578 12.1818 7.44C12.1818 7.85422 11.8301 8.19 11.3961 8.19ZM5.1104 8.19C4.67645 8.19 4.32468 7.85422 4.32468 7.44C4.32468 7.02578 4.67645 6.69 5.1104 6.69C5.54434 6.69 5.89611 7.02578 5.89611 7.44C5.89611 7.85422 5.54434 8.19 5.1104 8.19Z" fill="#682EE6"/>
</g>
<defs>
<clipPath id="clip0_3_244">
<rect width="14.6667" height="16" fill="white" transform="translate(0.919922 0.440002)"/>
</clipPath>
</defs>
</svg>
