<svg width="40" height="46" viewBox="0 0 40 46" fill="none" xmlns="http://www.w3.org/2000/svg">
<path d="M28.1985 30.7551V13.9703C31.5388 16.3679 35.5487 17.6529 39.6598 17.6435V11.2555C37.231 10.7423 35.0349 9.45316 33.4024 7.58233C32.0986 6.73853 30.9802 5.63778 30.1157 4.34724C29.2511 3.0567 28.6585 1.60345 28.3739 0.0761719H22.3403V33.1351C22.2815 34.5741 21.7762 35.9591 20.8945 37.0975C20.0127 38.236 18.7985 39.0713 17.4203 39.4876C16.0422 39.9038 14.5687 39.8802 13.2047 39.42C11.8406 38.9599 10.6536 38.086 9.8088 36.92C8.44142 36.1998 7.35395 35.043 6.71931 33.6334C6.08467 32.2238 5.9393 30.6424 6.30632 29.1407C6.67333 27.6389 7.53166 26.303 8.74481 25.3455C9.95797 24.3879 11.4563 23.8636 13.0016 23.8559C13.6946 23.8621 14.383 23.9697 15.0448 24.1754V17.7872C12.1086 17.837 9.25032 18.7404 6.81845 20.3873C4.38658 22.0343 2.48621 24.3535 1.34905 27.0622C0.211888 29.771 -0.112931 32.7523 0.414197 35.6425C0.941324 38.5328 2.29762 41.2071 4.31772 43.3396C6.88353 45.0732 9.92213 45.9713 13.0177 45.9109C21.3892 45.9109 28.1808 39.1304 28.1985 30.7551Z" fill="black"/>
</svg>
