<svg width="51" height="50" viewBox="0 0 51 50" fill="none" xmlns="http://www.w3.org/2000/svg">
<g clip-path="url(#clip0_6_25)">
<path d="M39.4018 9.58233C37.5798 7.50675 36.5755 4.83854 36.5764 2.07617H34.3733C34.6579 3.60345 35.2505 5.0567 36.115 6.34724C36.9796 7.63778 38.0979 8.73853 39.4018 9.58233ZM19.0171 25.824C17.472 25.8319 15.9738 26.3563 14.7608 27.3139C13.5479 28.2714 12.6897 29.6072 12.3227 31.1088C11.9557 32.6104 12.101 34.1916 12.7354 35.6011C13.3699 37.0106 14.4572 38.1674 15.8243 38.8877C15.0768 37.8551 14.6292 36.636 14.5309 35.3649C14.4326 34.0938 14.6874 32.8202 15.2672 31.6849C15.847 30.5496 16.7292 29.5968 17.8164 28.9317C18.9036 28.2665 20.1533 27.915 21.4277 27.916C22.1204 27.9251 22.8084 28.033 23.4707 28.2364V19.8352C22.7943 19.7337 22.1116 19.6804 21.4277 19.6755H21.0603V26.0635C20.3945 25.8848 19.7062 25.8042 19.0171 25.824Z" fill="#FE2C55"/>
<path d="M21.0597 19.6914V17.743C20.3836 17.6359 19.7008 17.5772 19.0164 17.5674C12.3904 17.5533 6.52427 21.8491 4.53448 28.172C2.5447 34.495 4.89341 41.3781 10.3321 45.164C8.33773 43.0286 7.00375 40.3613 6.49121 37.4841C5.97866 34.6069 6.30946 31.6428 7.44366 28.9495C8.57787 26.2563 10.467 23.949 12.883 22.3062C15.2991 20.6635 18.1387 19.7554 21.0592 19.6917L21.0597 19.6914Z" fill="#25F4EE"/>
<path d="M21.4286 41.7622C25.1332 41.7572 28.1784 38.8373 28.3406 35.1346V2.09218H34.3742C34.2511 1.40173 34.1924 0.701325 34.1988 0L25.9459 0V33.0105C25.8086 36.7321 22.7562 39.68 19.0339 39.686C17.9216 39.6765 16.8273 39.4029 15.8414 38.8875C16.4804 39.7733 17.3196 40.4953 18.2906 40.9949C19.2615 41.4945 20.3368 41.7574 21.4286 41.7622ZM45.6442 13.3031V11.4665C43.4236 11.4674 41.2522 10.8118 39.4027 9.58219C41.024 11.4678 43.2149 12.774 45.6442 13.3031Z" fill="#25F4EE"/>
<path d="M45.6398 13.3032V19.6914C41.5289 19.6834 37.5247 18.3816 34.1944 15.9703V32.7551C34.1767 41.1304 27.3852 47.9109 19.0136 47.9109C15.9045 47.9165 12.8702 46.9567 10.3294 45.164C12.4013 47.3935 15.0963 48.9471 18.0633 49.6225C21.0304 50.2978 24.1319 50.0636 26.964 48.9503C29.7961 47.837 32.2275 45.8963 33.9414 43.3809C35.6553 40.8654 36.5723 37.8919 36.5729 34.8477V18.1105C39.9144 20.5059 43.9235 21.7907 48.0343 21.7836V13.5582C47.2295 13.5558 46.4271 13.4703 45.6398 13.3032Z" fill="#FE2C55"/>
<path d="M34.1985 32.7551V15.9703C37.5388 18.3679 41.5487 19.6529 45.6598 19.6435V13.2555C43.231 12.7423 41.0349 11.4532 39.4024 9.58233C38.0986 8.73853 36.9802 7.63778 36.1157 6.34724C35.2511 5.0567 34.6585 3.60345 34.3739 2.07617H28.3403V35.1351C28.2815 36.5741 27.7762 37.9591 26.8945 39.0975C26.0127 40.236 24.7985 41.0713 23.4203 41.4876C22.0422 41.9038 20.5687 41.8802 19.2047 41.42C17.8406 40.9599 16.6536 40.086 15.8088 38.92C14.4414 38.1998 13.3539 37.043 12.7193 35.6334C12.0847 34.2238 11.9393 32.6424 12.3063 31.1407C12.6733 29.6389 13.5317 28.303 14.7448 27.3455C15.958 26.3879 17.4563 25.8636 19.0016 25.8559C19.6946 25.8621 20.383 25.9697 21.0448 26.1754V19.7872C18.1086 19.837 15.2503 20.7404 12.8184 22.3873C10.3866 24.0343 8.48621 26.3535 7.34905 29.0622C6.21189 31.771 5.88707 34.7523 6.4142 37.6425C6.94132 40.5328 8.29762 43.2071 10.3177 45.3396C12.8835 47.0732 15.9221 47.9713 19.0177 47.9109C27.3892 47.9109 34.1808 41.1304 34.1985 32.7551Z" fill="black"/>
</g>
<defs>
<clipPath id="clip0_6_25">
<rect width="50" height="50" fill="white" transform="translate(0.5)"/>
</clipPath>
</defs>
</svg>
